<?xml version="1.0" encoding="UTF-8"?>
<svg xmlns="http://www.w3.org/2000/svg" xmlns:xlink="http://www.w3.org/1999/xlink" width="152px" height="28px" viewBox="0 0 151 28" version="1.1">
<defs>
<clipPath id="clip1">
  <path d="M 0 13 L 8 13 L 8 27.910156 L 0 27.910156 Z M 0 13 "/>
</clipPath>
<clipPath id="clip2">
  <path d="M 120 0 L 122 0 L 122 27.910156 L 120 27.910156 Z M 120 0 "/>
</clipPath>
<clipPath id="clip3">
  <path d="M 132 3 L 150.886719 3 L 150.886719 22 L 132 22 Z M 132 3 "/>
</clipPath>
<linearGradient id="linear0" gradientUnits="userSpaceOnUse" x1="775.57" y1="131.33" x2="867.73" y2="22.64" gradientTransform="matrix(0.175377,0,0,0.176101,0,0)">
<stop offset="0" style="stop-color:rgb(0%,98.431373%,60.784314%);stop-opacity:1;"/>
<stop offset="0.08" style="stop-color:rgb(0%,94.117647%,66.27451%);stop-opacity:1;"/>
<stop offset="0.3" style="stop-color:rgb(0.392157%,72.941176%,93.72549%);stop-opacity:1;"/>
<stop offset="0.66" style="stop-color:rgb(17.647059%,29.019608%,85.490196%);stop-opacity:1;"/>
</linearGradient>
</defs>
<g id="surface1">
<path style=" stroke:none;fill-rule:nonzero;fill:rgb(14.509804%,16.862745%,40.392157%);fill-opacity:1;" d="M 18.28125 9.835938 C 18.882812 8.664062 20.082031 7.957031 21.390625 7.992188 C 22.765625 7.992188 24.601562 8.738281 24.601562 10.082031 C 24.636719 10.753906 24.140625 11.359375 23.472656 11.429688 L 23.367188 11.429688 C 23.011719 11.429688 22.660156 11.285156 22.375 11.039062 C 21.953125 10.6875 21.425781 10.472656 20.859375 10.507812 C 19.164062 10.507812 18.28125 11.746094 18.28125 13.34375 L 18.28125 19.261719 C 18.28125 20.464844 18.035156 21.070312 16.976562 21.070312 C 15.988281 21.070312 15.742188 20.464844 15.742188 19.191406 L 15.742188 9.691406 C 15.742188 8.839844 16.09375 8.308594 16.871094 8.308594 C 17.894531 8.308594 18.105469 8.769531 18.28125 9.832031 Z M 18.28125 9.835938 "/>
<path style=" stroke:none;fill-rule:nonzero;fill:rgb(14.509804%,16.862745%,40.392157%);fill-opacity:1;" d="M 29.507812 4.695312 C 29.542969 5.582031 28.835938 6.328125 27.953125 6.363281 C 26.964844 6.363281 26.328125 5.761719 26.328125 4.695312 C 26.292969 3.847656 26.964844 3.136719 27.8125 3.101562 L 27.953125 3.101562 C 28.800781 3.171875 29.46875 3.882812 29.507812 4.695312 Z M 29.261719 19.757812 C 29.261719 20.679688 28.835938 21.140625 27.917969 21.140625 C 27 21.140625 26.613281 20.679688 26.613281 19.757812 L 26.613281 9.726562 C 26.613281 8.734375 27 8.273438 27.882812 8.273438 C 28.765625 8.273438 29.226562 8.738281 29.226562 9.726562 L 29.226562 19.757812 Z M 29.261719 19.757812 "/>
<path style=" stroke:none;fill-rule:nonzero;fill:rgb(14.509804%,16.862745%,40.392157%);fill-opacity:1;" d="M 37.164062 17.457031 L 40.414062 9.234375 C 40.695312 8.523438 41.15625 8.238281 41.71875 8.238281 C 42.390625 8.238281 42.957031 8.808594 42.957031 9.480469 C 42.957031 9.726562 42.886719 9.976562 42.777344 10.1875 L 38.648438 20.078125 C 38.332031 20.820312 37.941406 21.175781 37.199219 21.175781 C 36.460938 21.175781 36.070312 20.855469 35.753906 20.078125 L 31.589844 10.222656 C 31.484375 10.011719 31.445312 9.761719 31.410156 9.550781 C 31.375 8.84375 31.941406 8.273438 32.613281 8.238281 L 32.648438 8.238281 C 33.175781 8.238281 33.636719 8.558594 33.953125 9.269531 Z M 37.164062 17.457031 "/>
<path style=" stroke:none;fill-rule:nonzero;fill:rgb(14.509804%,16.862745%,40.392157%);fill-opacity:1;" d="M 55.734375 8.132812 C 56.582031 8.132812 57.003906 8.59375 57.003906 9.550781 L 57.003906 19.546875 C 57.003906 20.644531 56.722656 21.175781 55.769531 21.175781 C 54.957031 21.175781 54.535156 20.574219 54.429688 19.226562 C 53.792969 20.429688 52.0625 21.246094 50.332031 21.246094 C 46.734375 21.246094 44.226562 18.339844 44.226562 14.617188 C 44.226562 10.894531 46.734375 7.953125 50.332031 7.953125 C 52.097656 7.953125 53.792969 8.699219 54.464844 10.007812 C 54.535156 9.054688 54.78125 8.128906 55.734375 8.128906 Z M 46.839844 14.621094 C 46.839844 16.886719 48.390625 18.660156 50.613281 18.660156 C 52.835938 18.660156 54.390625 16.886719 54.390625 14.621094 C 54.390625 12.351562 52.835938 10.582031 50.613281 10.582031 C 48.390625 10.582031 46.839844 12.460938 46.839844 14.621094 Z M 46.839844 14.621094 "/>
<path style=" stroke:none;fill-rule:nonzero;fill:rgb(14.509804%,16.862745%,40.392157%);fill-opacity:1;" d="M 65.4375 21.285156 C 61.804688 21.320312 58.835938 18.414062 58.800781 14.761719 L 58.800781 14.621094 C 58.730469 11.003906 61.625 7.992188 65.261719 7.957031 L 65.4375 7.957031 C 66.921875 7.921875 68.367188 8.382812 69.535156 9.269531 C 69.992188 9.550781 70.3125 10.082031 70.3125 10.617188 C 70.3125 11.289062 69.746094 11.855469 69.074219 11.855469 L 69.039062 11.855469 C 68.652344 11.820312 68.300781 11.675781 67.980469 11.429688 C 67.273438 10.898438 66.394531 10.578125 65.476562 10.578125 C 63.25 10.578125 61.488281 12.386719 61.488281 14.617188 C 61.488281 16.851562 63.285156 18.621094 65.511719 18.621094 C 66.570312 18.621094 67.558594 18.269531 68.335938 17.558594 C 68.617188 17.277344 69.003906 17.097656 69.429688 17.0625 C 70.097656 17.0625 70.664062 17.628906 70.664062 18.300781 L 70.664062 18.335938 C 70.628906 18.761719 70.449219 19.152344 70.132812 19.472656 C 69.109375 20.605469 67.308594 21.277344 65.4375 21.277344 Z M 65.4375 21.285156 "/>
<path style=" stroke:none;fill-rule:nonzero;fill:rgb(14.509804%,16.862745%,40.392157%);fill-opacity:1;" d="M 74.898438 15.046875 C 75.214844 17.207031 76.453125 18.730469 78.921875 18.730469 C 79.980469 18.765625 81.003906 18.378906 81.816406 17.667969 C 82.097656 17.347656 82.523438 17.207031 82.910156 17.207031 C 83.578125 17.207031 84.144531 17.773438 84.144531 18.445312 C 84.144531 19.6875 81.957031 21.28125 78.851562 21.28125 C 75.214844 21.28125 72.285156 18.339844 72.285156 14.726562 L 72.285156 14.65625 C 72.214844 11.039062 75.109375 8.0625 78.710938 7.992188 L 78.851562 7.992188 C 82.628906 7.992188 85.027344 10.933594 85.027344 13.308594 C 85.027344 14.441406 84.320312 15.078125 83.050781 15.078125 L 74.898438 15.078125 L 74.898438 15.042969 Z M 82.382812 13.027344 C 82.0625 11.429688 80.6875 10.472656 78.851562 10.472656 C 77.015625 10.472656 75.535156 11.46875 75.039062 13.027344 Z M 82.382812 13.027344 "/>
<path style=" stroke:none;fill-rule:nonzero;fill:rgb(14.509804%,16.862745%,40.392157%);fill-opacity:1;" d="M 89.546875 9.835938 C 90.144531 8.664062 91.34375 7.957031 92.652344 7.992188 C 94.027344 7.992188 95.863281 8.738281 95.863281 10.082031 C 95.898438 10.753906 95.402344 11.359375 94.734375 11.429688 L 94.628906 11.429688 C 94.277344 11.429688 93.921875 11.285156 93.640625 11.039062 C 93.214844 10.6875 92.6875 10.472656 92.121094 10.507812 C 90.429688 10.507812 89.546875 11.746094 89.546875 13.34375 L 89.546875 19.261719 C 89.546875 20.464844 89.296875 21.070312 88.238281 21.070312 C 87.25 21.070312 87.003906 20.464844 87.003906 19.191406 L 87.003906 9.691406 C 87.003906 8.839844 87.355469 8.308594 88.132812 8.308594 C 89.125 8.308594 89.332031 8.769531 89.546875 9.832031 Z M 89.546875 9.835938 "/>
<path style=" stroke:none;fill-rule:nonzero;fill:rgb(14.509804%,16.862745%,40.392157%);fill-opacity:1;" d="M 108.148438 8.132812 C 108.992188 8.132812 109.417969 8.59375 109.417969 9.550781 L 109.417969 19.546875 C 109.417969 20.644531 109.136719 21.175781 108.183594 21.175781 C 107.371094 21.175781 106.949219 20.574219 106.839844 19.226562 C 106.207031 20.429688 104.476562 21.246094 102.746094 21.246094 C 99.144531 21.246094 96.640625 18.339844 96.640625 14.617188 C 96.640625 10.894531 99.144531 7.953125 102.746094 7.953125 C 104.511719 7.953125 106.207031 8.699219 106.875 10.007812 C 106.945312 9.054688 107.195312 8.128906 108.148438 8.128906 Z M 99.25 14.621094 C 99.25 16.886719 100.804688 18.660156 103.027344 18.660156 C 105.25 18.660156 106.804688 16.886719 106.804688 14.621094 C 106.804688 12.351562 105.25 10.582031 103.027344 10.582031 C 100.804688 10.582031 99.25 12.460938 99.25 14.621094 Z M 99.25 14.621094 "/>
<path style=" stroke:none;fill-rule:nonzero;fill:rgb(14.509804%,16.862745%,40.392157%);fill-opacity:1;" d="M 13.164062 14.621094 C 13.164062 18.449219 10.660156 21.320312 6.953125 21.320312 L 6.105469 21.320312 C 5.363281 21.320312 4.800781 20.714844 4.800781 20.007812 C 4.800781 19.261719 5.398438 18.695312 6.105469 18.695312 L 6.671875 18.695312 C 8.894531 18.695312 10.484375 16.851562 10.484375 14.65625 C 10.484375 12.460938 8.894531 10.582031 6.671875 10.582031 L 1.304688 10.582031 C 0.636719 10.582031 0.0703125 10.082031 0 9.410156 L 0 9.304688 C 0 8.558594 0.601562 7.992188 1.304688 7.992188 L 6.988281 7.992188 C 10.625 7.957031 13.164062 10.863281 13.164062 14.621094 Z M 13.164062 14.621094 "/>
<g clip-path="url(#clip1)" clip-rule="nonzero">
<path style=" stroke:none;fill-rule:nonzero;fill:rgb(100%,30.196078%,0.392157%);fill-opacity:1;" d="M 7.023438 13.734375 C 6.847656 13.628906 6.636719 13.589844 6.460938 13.589844 L 1.304688 13.589844 C 0.601562 13.589844 0 14.160156 0 14.902344 L 0 26.601562 C 0 27.308594 0.601562 27.910156 1.304688 27.910156 C 2.011719 27.910156 2.613281 27.308594 2.613281 26.601562 L 2.613281 16.25 L 6.460938 16.25 C 7.203125 16.25 7.765625 15.648438 7.765625 14.9375 C 7.765625 14.40625 7.484375 13.945312 7.027344 13.734375 Z M 7.023438 13.734375 "/>
</g>
<g clip-path="url(#clip2)" clip-rule="nonzero">
<path style=" stroke:none;fill-rule:nonzero;fill:rgb(14.509804%,16.862745%,40.392157%);fill-opacity:1;" d="M 121.207031 0 L 120.855469 0 L 120.855469 27.910156 L 121.207031 27.910156 Z M 121.207031 0 "/>
</g>
<g clip-path="url(#clip3)" clip-rule="nonzero">
<path style=" stroke:none;fill-rule:nonzero;fill:url(#linear0);" d="M 150.851562 9.679688 C 150.851562 8.652344 150.375 8.175781 149.460938 8.175781 C 148.546875 8.175781 148.148438 8.652344 148.148438 9.679688 L 148.148438 20.0625 C 148.148438 21.015625 148.585938 21.492188 149.5 21.492188 C 150.414062 21.492188 150.886719 21.015625 150.886719 20.0625 L 150.851562 20.0625 Z M 144.550781 8.03125 C 143.566406 8.03125 143.308594 8.984375 143.234375 9.972656 C 142.542969 8.617188 140.789062 7.847656 138.960938 7.847656 C 135.234375 7.847656 132.640625 10.816406 132.640625 14.742188 C 132.640625 18.667969 135.234375 21.601562 138.960938 21.601562 C 140.753906 21.601562 142.542969 20.757812 143.199219 19.511719 C 143.308594 20.90625 143.746094 21.53125 144.589844 21.53125 C 145.574219 21.53125 145.867188 20.980469 145.867188 19.84375 L 145.867188 9.5 C 145.867188 8.507812 145.429688 8.03125 144.550781 8.03125 Z M 139.253906 18.925781 C 136.953125 18.925781 135.347656 17.089844 135.347656 14.742188 C 135.347656 12.394531 136.953125 10.5625 139.253906 10.5625 C 141.554688 10.5625 143.164062 12.503906 143.164062 14.742188 C 143.164062 17.089844 141.519531 18.925781 139.253906 18.925781 Z M 150.886719 4.761719 C 150.886719 5.519531 150.273438 6.136719 149.519531 6.136719 C 148.761719 6.136719 148.148438 5.519531 148.148438 4.761719 C 148.148438 4 148.761719 3.382812 149.519531 3.382812 C 150.273438 3.382812 150.886719 4 150.886719 4.761719 Z M 150.886719 4.761719 "/>
</g>
</g>
</svg>
