<svg width="75" height="75" viewBox="0 0 75 75" fill="none" xmlns="http://www.w3.org/2000/svg">
    <path d="M70.858 28.0097C68.5887 27.5202 66.1414 28.6772 65.029 30.8575C64.7175 31.4804 64.4505 31.9699 63.5606 31.9699C56.1742 31.9699 48.8323 31.9254 41.4459 31.9254C34.0595 31.9254 40.3335 31.5694 40.378 30.813C40.4225 29.4336 40.467 28.0542 40.378 26.6303C40.289 25.3844 40.823 25.1619 41.8909 25.1619C46.207 25.2064 50.5677 25.1619 54.8838 25.2064C55.9962 25.2064 56.3522 24.8505 56.3077 23.7381C56.2187 21.5132 56.3077 19.2884 56.2632 17.0636C56.2632 16.1737 56.5302 15.7287 57.3311 15.3282C59.6894 14.1713 60.7573 11.813 60.1789 9.32123C59.6449 7.05191 57.5536 5.40555 55.2398 5.36105C52.6145 5.36105 50.6121 6.74044 49.9447 9.18774C49.2773 11.546 50.3452 14.0823 52.6145 15.2392C53.2819 15.5952 53.6379 15.9957 53.5934 16.7966C53.5934 18.2205 53.5489 19.6444 53.5934 21.0683C53.5934 22.0917 53.2374 22.4477 52.1695 22.4032C48.6988 22.3587 45.2726 22.3142 41.8019 22.4032C40.645 22.4032 40.289 22.0917 40.289 20.9348C40.289 15.8622 40.2445 10.7451 40.2445 5.67253C40.2445 4.7381 40.022 4.24864 39.0876 3.93717C35.3499 2.69127 31.6122 1.31188 27.8745 0.110479C27.2516 -0.112003 26.3171 0.0214861 25.7387 0.332961C20.5771 3.26972 15.46 6.29548 10.3429 9.23224C9.63099 9.6327 9.40851 10.1222 9.40851 10.9231C9.40851 14.5273 9.40851 18.176 9.40851 21.7802C9.40851 22.7591 9.09704 23.2931 8.25161 23.7381C5.75981 25.1174 3.26801 26.5413 0.820705 28.0097C0.420238 28.2767 0.0197762 28.8996 0.0197762 29.3446C-0.0247202 34.5952 0.0197762 39.8457 0.0197762 45.1408C0.0197762 45.8528 0.242258 46.2977 0.909704 46.6092C3.4015 47.9886 5.89329 49.4125 8.38509 50.7919C9.09703 51.1923 9.40851 51.6373 9.36402 52.4827C9.31952 56.2204 9.31952 59.9581 9.36402 63.6958C9.36402 64.1853 9.71998 64.9417 10.1205 65.2087C15.4155 68.3234 20.7551 71.3937 26.0947 74.4194C26.4506 74.5974 26.9846 74.7309 27.3405 74.5974C31.4342 73.2625 35.4834 71.8386 39.5326 70.5037C40.2 70.2813 40.4225 69.8808 40.4225 69.2134C40.378 67.6115 40.4225 66.0096 40.4225 64.4077C40.4225 61.0705 40.4225 57.7778 40.4225 54.4406C40.4225 53.5951 40.6895 53.2392 41.5794 53.2837C43.8487 53.3281 46.118 53.3281 48.3873 53.2837C49.2773 53.2837 49.5887 53.5951 49.5442 54.4851C49.4997 55.553 49.6332 56.6654 49.4997 57.7778C49.4552 58.2228 49.0548 58.8457 48.6543 59.0682C46.2515 60.3586 45.0501 62.7614 45.6731 65.2532C46.2515 67.656 48.4318 69.3468 50.9681 69.3468C53.5044 69.3468 55.5957 67.656 56.1742 65.3422C56.7971 62.7614 55.7292 60.3141 53.2374 59.1572C52.5255 58.8012 52.3475 58.4007 52.3475 57.6888C52.3475 55.8199 52.303 53.9956 52.3475 52.1267C52.392 50.9253 52.036 50.5249 50.7901 50.5694C47.7199 50.6584 44.6496 50.5694 41.5794 50.5694C41.0899 50.5694 40.4225 50.7474 40.4225 49.8574V43.9839C41.1344 43.9839 41.7129 43.8949 42.2913 43.8949C46.118 43.8949 49.9447 44.0729 53.7714 43.8504C56.1742 43.7169 57.7761 44.4289 58.8885 46.5202C59.3334 47.3211 59.5559 47.9441 59.2445 48.923C58.5325 50.9698 58.9775 52.9277 60.6238 54.4851C62.2702 55.9979 64.1835 56.3539 66.2304 55.5975C68.3217 54.7965 69.3896 53.1947 69.6121 50.9698C69.9681 47.2766 66.4529 44.5179 62.7152 45.5413C61.9142 45.7638 61.5138 45.6303 61.0688 44.9628C60.4903 44.0284 59.7339 43.2275 59.1555 42.293C58.666 41.4476 57.9985 41.2251 57.0641 41.2251C51.9915 41.2251 46.9635 41.2251 41.8909 41.1361H40.378C40.378 39.1783 40.378 37.3984 40.378 35.6186C40.378 34.7732 40.6895 34.5062 41.4904 34.5507C48.7433 34.5507 55.9517 34.5507 63.2046 34.5507C64.0946 34.5507 64.6285 34.8177 65.029 35.7076C66.1414 37.9324 68.9002 39.0448 71.2585 38.2884C73.6168 37.5319 75.0852 35.4851 74.9962 33.0378C74.9072 30.546 73.2163 28.4992 70.769 28.0097H70.858ZM55.1953 13.2369C53.7269 13.2369 52.481 12.1245 52.481 10.6561C52.481 9.18774 53.5934 7.94184 55.0618 7.89735C56.5302 7.85285 57.7316 9.00975 57.7761 10.4781C57.7761 11.991 56.6637 13.1924 55.2398 13.2369H55.1953ZM69.7901 35.7966C68.2772 35.7966 67.1203 34.6397 67.1203 33.1713C67.1203 31.7474 68.3662 30.5905 69.8346 30.635C71.2585 30.635 72.3709 31.7919 72.4154 33.2158C72.4154 34.6842 71.2585 35.8411 69.7901 35.8411V35.7966ZM66.9868 50.5694C66.9868 52.0378 65.7854 53.2392 64.3615 53.1947C62.9377 53.1947 61.7807 52.0378 61.7807 50.6584C61.7807 49.19 62.8931 48.0331 64.406 48.0776C65.8299 48.0776 66.9868 49.19 66.9868 50.6139V50.5694ZM37.7082 43.1385C37.7082 44.0729 37.3967 44.5624 36.6403 45.0518C30.8113 48.5225 25.0267 52.0378 19.1977 55.5085C18.8417 55.731 18.4858 55.9534 18.0853 56.2204C18.5748 57.0214 19.0197 57.7778 19.5537 58.6677C25.5162 55.0635 31.4342 51.4593 37.5747 47.7216C37.6192 48.3446 37.6637 48.7895 37.6637 49.2345C37.6637 55.1525 37.5747 61.115 37.5747 67.033C37.5747 67.8785 37.3522 68.2789 36.5068 68.5459C33.659 69.4358 30.8558 70.4593 28.008 71.3492C27.5185 71.4827 26.8511 71.4382 26.4061 71.2157C25.3382 70.6817 24.3148 70.0143 23.0689 69.3023C26.0502 67.4335 28.8534 65.6536 31.7902 63.7848C31.3007 62.9839 30.8558 62.2274 30.3663 61.382C29.9213 61.6045 29.5654 61.7825 29.2094 62.0049C26.4951 63.6958 23.7808 65.3867 21.0666 67.0775C20.4436 67.478 19.9096 67.567 19.2422 67.122C17.2399 65.8761 15.1485 64.8082 13.1462 63.5623C12.7457 63.2953 12.3453 62.6724 12.3453 62.2274C12.2563 58.9347 12.3453 55.642 12.2563 52.3937C12.2563 51.6373 12.5233 51.1923 13.1462 50.7474C15.3265 49.368 17.4179 47.9441 19.6427 46.4757C19.1087 45.6303 18.6193 44.9183 18.0408 44.1174C15.8605 45.5413 13.7247 46.8762 11.6333 48.3001C10.9659 48.745 10.4764 48.745 9.80898 48.3446C7.80664 47.1432 5.8043 46.0307 3.75747 44.9183C3.13452 44.5624 2.86754 44.1619 2.86754 43.45C2.91204 41.9816 2.77855 40.5132 2.86754 39.0448C2.86754 38.5554 3.3125 37.8879 3.71297 37.6209C6.20477 36.0636 8.78556 34.6397 11.4553 33.0823C10.9659 32.2814 10.5654 31.5249 10.076 30.635C7.67315 32.0144 5.35934 33.3048 2.77855 34.7732C2.77855 33.2158 2.73405 31.8809 2.77855 30.546C2.77855 30.2345 3.22351 29.8341 3.53499 29.6561C5.67081 28.4102 7.80664 27.1198 9.98696 25.9629C10.3874 25.7404 11.0549 25.7404 11.4553 25.9629C13.5912 27.1198 15.727 28.3212 17.8183 29.5671C19.0197 30.279 18.9752 34.9066 17.8183 35.6631C16.9729 36.197 16.083 36.6865 15.193 37.176C14.3476 37.6654 13.5022 38.1549 12.5678 38.6443C13.0572 39.4453 13.5022 40.2017 14.0361 41.0916C15.371 40.3352 16.7504 39.6678 17.9518 38.7778C19.3757 37.7544 20.5771 37.6654 22.001 38.7333C23.2024 39.6233 24.6263 40.2462 26.0502 41.0471C26.5396 40.2462 26.9846 39.5343 27.474 38.6888C25.7387 37.6654 24.0923 36.6865 22.4014 35.7966C21.6005 35.3961 21.467 34.8177 21.378 34.0167C20.9331 31.08 21.823 29.0776 24.6708 27.8317C26.1391 27.2088 27.474 26.1409 28.8089 25.1619C29.1649 24.895 29.4764 24.361 29.4764 23.9605C29.4764 21.2018 29.4764 18.3985 29.4764 15.6397C29.4764 14.4828 28.7644 14.6608 28.0525 14.6163C27.2516 14.6163 26.6731 14.6163 26.6731 15.7287C26.7176 17.8645 26.6731 20.0004 26.7621 22.1807C26.7621 22.9816 26.5396 23.5156 25.8277 23.916C24.1813 24.895 22.5794 26.0519 20.8886 26.9863C20.4436 27.2533 19.6427 27.2978 19.1977 27.0753C17.0174 25.9629 14.9261 24.717 12.8347 23.4711C12.4788 23.2486 12.1228 22.6256 12.1228 22.1807C12.0783 18.8435 12.0783 15.5507 12.1228 12.2135C12.1228 11.8575 12.2563 11.3681 12.4788 11.2346C14.4366 10.0332 16.4389 8.92076 18.7083 7.58587V17.1526C18.7083 18.443 20.0431 19.2439 21.1111 18.532C21.378 18.354 21.467 17.82 21.467 17.4196C21.467 14.0378 21.5115 10.7006 21.467 7.31889C21.467 6.38447 21.8675 5.89501 22.5794 5.27206C25.4272 2.95825 28.364 2.46879 31.7012 4.24864C33.1251 5.00508 34.7714 5.40555 36.3288 5.85051C37.3077 6.11749 37.5747 6.69594 37.5747 7.67486C37.5747 17.909 37.5747 28.1432 37.5747 38.3329C37.5747 39.9347 37.5302 41.5366 37.5747 43.1385H37.7082ZM51.0126 61.471C52.481 61.471 53.5044 62.5834 53.5044 64.0518C53.5044 65.4757 52.3475 66.5881 50.9236 66.5881C49.5442 66.5881 48.3428 65.3422 48.3873 63.9628C48.3873 62.5389 49.5442 61.471 51.0126 61.471Z" fill="url(#paint0_linear_4935_11722)"/>
    <defs>
        <linearGradient id="paint0_linear_4935_11722" x1="17.4624" y1="69.5248" x2="55.0173" y2="4.47112" gradientUnits="userSpaceOnUse">
            <stop stop-color="#A5E1FE"/>
            <stop offset="1" stop-color="#745AFE"/>
        </linearGradient>
    </defs>
</svg>