<svg width="200" height="45" viewBox="0 0 200 45" fill="none" xmlns="http://www.w3.org/2000/svg">
<path d="M200 32.1224C199.944 32.3473 199.831 32.516 199.774 32.7409C199.605 33.4718 199.211 34.034 198.478 34.2027C197.463 34.4276 196.56 34.2027 196.166 33.4156C195.827 32.7971 195.715 32.0662 195.489 31.3915C195.433 31.2228 195.433 31.1104 195.376 30.8293C195.207 30.9979 195.094 31.0542 194.982 31.1666C193.459 33.1907 191.26 34.0902 188.836 34.3151C186.186 34.54 183.705 33.9778 181.562 32.4035C178.855 30.4357 177.389 27.737 176.938 24.476C176.544 21.6648 176.826 18.9099 178.122 16.3798C179.814 13.0626 182.52 11.0386 186.298 10.5325C188.836 10.1952 191.204 10.5888 193.403 12.0506C194.136 12.5566 194.813 13.1751 195.546 13.7935C195.489 13.8497 195.489 13.9622 195.433 14.0184C195.546 13.5124 195.602 13.0626 195.715 12.5566C196.053 11.2072 196.899 10.645 198.252 10.8699C198.929 10.9823 199.436 11.3759 199.662 12.0506C199.718 12.2755 199.831 12.5004 199.944 12.669C200 19.191 200 25.6567 200 32.1224ZM181.336 22.4519C181.393 23.0704 181.449 23.6326 181.562 24.2511C182.464 29.0863 187.99 31.4477 192.106 28.8052C194.925 27.0061 196.053 23.1266 194.813 19.697C193.516 16.2111 189.963 14.3557 186.411 15.3678C183.535 16.1549 181.28 19.1348 181.336 22.4519Z" fill="white"/>
<path d="M0.112798 11.0156C0.22557 10.8469 0.169184 10.7062 0.281955 10.5376C0.676654 9.6942 1.35328 9.13197 2.25545 9.13197C6.08968 9.07574 9.86752 8.90707 13.7017 9.18819C18.4381 9.52553 21.7085 12.1118 23.2309 16.5535C24.8097 21.0514 24.3023 25.3806 21.3138 29.26C19.6786 31.3965 17.4796 32.6334 14.8295 33.027C13.589 33.1957 12.3485 33.1957 11.108 33.1957C9.92391 33.1957 9.07812 32.3523 8.90896 31.1154C8.79619 30.1034 9.52921 28.9789 10.5441 28.6978C11.108 28.5853 11.6719 28.5291 12.2357 28.5291C15.9008 28.6978 18.9456 25.6055 19.2839 22.0634C19.5095 19.8145 19.002 17.8466 17.5924 16.1037C16.2955 14.5294 14.6603 13.6861 12.6304 13.6861C9.36005 13.6861 5.52708 13.6861 2.25671 13.6861C0.959838 13.6861 0.563882 13.2925 0.112798 11.9431C0.112798 11.8869 0.169213 11.7357 0.112771 11.577C0.112771 11.4565 0.0563553 11.335 0.112798 11.0156Z" fill="white"/>
<path d="M0 20.9151C0.0563857 20.8027 0.112771 20.6902 0.169157 20.5778C0.563857 19.622 1.29687 19.0598 2.3682 19.0598C5.5258 19.0598 8.73978 19.0598 11.8974 19.0598C13.2506 19.0598 14.2092 20.0718 14.2092 21.4211C14.2092 22.7143 13.1943 23.7263 11.8974 23.7263C9.81111 23.7263 7.72484 23.7263 5.63857 23.7263C5.41303 23.7263 5.1311 23.7263 4.79278 23.7263C4.79278 24.0637 4.79278 24.3448 4.79278 24.6259C4.79278 30.3607 4.7364 36.1517 4.79278 41.8865C4.79278 43.4046 4.3417 44.4166 2.87567 44.9226C2.53736 44.9226 2.25543 44.9226 1.91711 44.9226C1.01494 44.5853 0.3947 43.9668 0 43.011C0 35.6457 0 28.2804 0 20.9151Z" fill="#FF4D01"/>
<path d="M51.4237 0C51.762 0.168671 52.1003 0.337342 52.4386 0.506012C53.8483 1.29314 54.2993 3.14852 53.4536 4.44166C52.5514 5.84725 50.5779 6.1846 49.3374 5.2288C48.4352 4.55411 48.2097 3.54209 48.3224 2.47384C48.4352 1.46181 48.9991 0.730907 49.9576 0.281118C50.1268 0.168671 50.3523 0.0562236 50.5215 0C50.8034 0 51.0853 0 51.4237 0Z" fill="white"/>
<path d="M99.577 31.111C99.0131 31.617 98.4493 32.123 97.829 32.5728C96.2502 33.7535 94.4459 34.3157 92.4724 34.372C86.5519 34.6531 82.0974 30.605 81.1389 24.8702C80.575 21.4405 81.0261 18.1796 82.9996 15.1997C84.804 12.5572 87.2849 10.9829 90.4989 10.5331C93.0363 10.1958 95.4609 10.5894 97.6035 11.995C98.3365 12.501 98.9568 13.2319 99.6334 13.9066C99.7462 13.4568 99.8025 12.9508 99.9717 12.4447C100.254 11.3765 100.874 10.8143 101.776 10.8143C103.693 10.7018 104.144 11.7138 104.144 13.1194C104.201 19.304 104.144 25.5448 104.144 31.7294C104.144 32.123 104.031 32.4603 103.975 32.8539C103.806 33.5286 103.411 34.0908 102.678 34.1471C101.832 34.2595 100.93 34.3157 100.423 33.4724C100.084 32.8539 99.9153 32.123 99.6334 31.3921C99.6334 31.3359 99.577 31.1672 99.577 31.111ZM85.537 22.5088C85.5934 23.071 85.6497 23.6895 85.7061 24.2517C86.5519 29.0307 92.0777 31.4483 96.1939 28.862C98.844 27.1753 100.084 23.7457 99.2387 20.4285C98.2237 16.5491 94.4459 14.3001 90.6117 15.3684C87.7924 16.1555 85.4806 19.0791 85.537 22.5088Z" fill="white"/>
<path d="M136.848 23.065C136.961 23.6272 137.074 24.077 137.186 24.5268C137.919 27.4504 140.118 29.5869 143.445 29.868C145.926 30.0367 148.012 29.4182 149.817 27.7878C151.114 26.6633 152.974 27.0006 153.538 28.4624C153.933 29.4182 153.651 30.2616 152.974 30.9925C151.677 32.5105 149.986 33.2977 148.069 33.8037C144.178 34.7595 140.4 34.4784 137.074 32.0607C134.141 29.9243 132.506 27.0568 132.224 23.4585C131.942 19.9727 132.901 16.9366 135.213 14.3503C137.186 12.1576 139.611 10.9207 142.543 10.5271C146.208 10.0773 149.478 11.0331 152.185 13.507C154.102 15.2499 155.286 17.3864 155.286 20.0851C155.286 21.6594 154.328 22.7276 152.805 22.9525C152.185 23.065 151.621 23.065 151.001 23.065C146.603 23.065 142.148 23.065 137.75 23.065C137.468 23.065 137.243 23.065 136.848 23.065ZM150.606 19.5229C150.662 18.4546 149.817 17.049 148.802 16.2619C147.054 14.9688 145.08 14.5752 142.938 14.8563C140.682 15.1937 138.934 16.2057 137.694 18.1173C137.468 18.5109 137.299 18.9607 137.074 19.5229C141.697 19.5229 146.152 19.5229 150.606 19.5229Z" fill="white"/>
<path d="M107.584 22.4313C107.471 16.8651 111.531 11.6363 117.451 10.6243C121.004 10.0059 124.33 10.793 127.262 12.9295C127.883 13.3793 128.277 14.054 128.447 14.8411C128.728 16.2467 127.262 17.6523 125.853 17.3149C125.233 17.1462 124.669 16.8651 124.161 16.5278C119.538 13.323 113.392 15.6844 112.433 21.1943C111.644 25.7485 114.801 29.2343 118.635 29.7966C121.116 30.1339 123.203 29.4592 125.063 27.885C125.796 27.2665 126.586 26.8729 127.544 27.2103C129.236 27.7725 129.574 29.7966 128.221 31.2021C126.642 32.8889 124.612 33.7884 122.413 34.2382C118.466 35.0254 114.858 34.2944 111.756 31.6519C109.557 29.7966 108.204 27.4352 107.753 24.5678C107.64 23.8369 107.64 23.1622 107.584 22.4313Z" fill="white"/>
<path d="M68.001 27.1972C68.5084 25.9603 68.9031 24.9482 69.2978 23.88C70.8202 20.0006 72.3427 16.1211 73.9215 12.2417C74.2598 11.3421 74.8236 10.555 75.895 10.4426C77.6429 10.2177 78.827 11.6795 78.2632 13.3662C77.6993 14.9404 77.0227 16.4585 76.346 17.9765C74.3725 22.6431 72.399 27.2534 70.4255 31.92C69.6925 33.7191 68.1137 33.8878 66.9296 33.4942C66.0838 33.2131 65.6891 32.5384 65.3508 31.7513C63.772 28.0405 62.1932 24.2736 60.6144 20.5628C59.6559 18.3139 58.6973 16.0649 57.7388 13.816C57.3441 12.9164 57.3441 12.073 57.9643 11.2859C59.092 9.88032 61.0655 10.2739 61.8549 12.073C62.5315 13.6473 63.1518 15.2216 63.772 16.7958C65.0689 20.0006 66.3094 23.2615 67.6063 26.4663C67.719 26.6912 67.8318 26.8598 68.001 27.1972Z" fill="white"/>
<path d="M163.631 13.671C164.251 12.9963 164.759 12.3216 165.379 11.8156C167.917 9.62285 171.976 10.2413 174.175 12.0967C174.965 12.7714 175.359 13.671 175.134 14.7392C174.739 16.4821 172.709 17.0444 171.3 15.8075C169.664 14.3456 166.338 14.5705 164.928 16.2572C164.082 17.2693 163.688 18.45 163.688 19.7431C163.688 23.4539 163.688 27.1084 163.688 30.8192C163.688 31.2689 163.631 31.775 163.575 32.2247C163.406 33.4617 162.673 34.0239 161.319 34.0239C160.135 34.0239 159.459 33.3492 159.346 32.1123C159.29 31.3814 159.233 30.7067 159.233 29.9758C159.233 24.5783 159.233 19.1809 159.233 13.7834C159.233 13.4461 159.29 13.1087 159.346 12.7714C159.571 11.6469 160.079 11.1409 160.981 11.0847C162.391 11.0284 163.011 11.3658 163.406 12.6027C163.462 12.8838 163.518 13.2212 163.631 13.671Z" fill="white"/>
<path d="M33.4931 13.7307C33.6622 13.5058 33.775 13.3933 33.8878 13.2247C35.3538 11.0882 37.3837 10.1886 39.9774 10.4697C41.3871 10.6384 42.6839 11.032 43.8116 11.9315C44.6574 12.6062 45.1649 13.4496 44.9957 14.5178C44.6574 16.3732 42.7403 17.1041 41.2179 15.8672C39.9774 14.7989 38.5114 14.6303 37.0454 14.9114C34.9591 15.3612 33.5494 17.2166 33.5494 19.3531C33.5494 23.0638 33.5494 26.7183 33.5494 30.4291C33.5494 31.16 33.4367 31.8347 33.2675 32.5656C33.042 33.5776 32.2526 34.0274 31.1249 34.0274C30.0535 33.9712 29.3769 33.4652 29.2077 32.3969C29.1514 32.0034 29.095 31.6098 29.095 31.2162C29.095 25.2565 29.095 19.2968 29.095 13.3371C29.095 12.8311 29.2641 12.2689 29.4897 11.8191C30.0535 10.6946 32.5345 10.7508 32.9856 12.1002C33.0984 12.6062 33.2675 13.1685 33.4931 13.7307Z" fill="white"/>
<path d="M53.3971 22.1169C53.3971 25.2092 53.3971 28.3015 53.3971 31.3376C53.3971 32.181 53.1716 32.9681 52.3822 33.3617C51.48 33.8115 50.5779 33.8115 49.6757 33.2492C48.9991 32.8557 48.8299 32.1247 48.8299 31.3938C48.8299 25.153 48.8299 18.9684 48.8299 12.7276C48.8299 11.1533 49.6757 10.3662 51.1981 10.4224C52.6077 10.4224 53.4535 11.322 53.4535 12.7838C53.3971 15.9323 53.3971 19.0246 53.3971 22.1169Z" fill="white"/>
</svg>