<?xml version="1.0" standalone="no"?>
<!DOCTYPE svg PUBLIC "-//W3C//DTD SVG 20010904//EN"
 "http://www.w3.org/TR/2001/REC-SVG-20010904/DTD/svg10.dtd">
<svg version="1.0" xmlns="http://www.w3.org/2000/svg"
 width="1056.000000pt" height="1056.000000pt" viewBox="0 0 1056.000000 1056.000000"
 preserveAspectRatio="xMidYMid meet">
<metadata>
Created by potrace 1.14, written by Peter Selinger 2001-2017
</metadata>
<g transform="translate(0.000000,1056.000000) scale(0.100000,-0.100000)"
fill="#000000" stroke="none">
<path d="M3098 10364 c-4 -3 -130 -7 -279 -7 -189 0 -288 -4 -321 -13 -27 -7
-52 -13 -56 -13 -47 -6 -168 -68 -228 -116 -113 -92 -206 -234 -234 -355 -7
-30 -16 -68 -20 -85 -7 -34 -5 -166 4 -210 13 -63 15 -71 25 -98 52 -134 107
-211 226 -312 69 -58 205 -115 315 -131 25 -3 729 -7 1565 -9 836 -1 1531 -5
1545 -9 14 -4 41 -9 60 -12 65 -8 154 -26 217 -43 118 -32 219 -70 339 -127
83 -40 225 -125 260 -156 11 -10 25 -18 31 -18 6 0 13 -3 15 -7 2 -5 30 -30
63 -57 70 -58 195 -183 245 -244 19 -24 43 -54 53 -65 23 -27 117 -168 148
-222 68 -120 179 -382 193 -458 3 -12 5 -22 6 -22 1 0 3 -7 5 -15 14 -53 27
-108 31 -125 2 -11 6 -31 9 -45 41 -197 53 -611 21 -760 -1 -8 -6 -37 -10 -65
-4 -27 -12 -66 -16 -85 -5 -19 -11 -48 -14 -63 -6 -32 -62 -221 -75 -252 -5
-11 -19 -45 -31 -75 -32 -79 -94 -204 -102 -208 -5 -2 -8 -8 -8 -13 0 -15 -83
-149 -93 -149 -4 0 -6 -4 -3 -9 3 -4 -6 -19 -19 -31 -14 -13 -25 -27 -25 -32
0 -8 -28 -44 -62 -80 -10 -10 -18 -21 -18 -24 0 -13 -211 -215 -285 -272 -44
-35 -85 -67 -92 -72 -7 -6 -14 -10 -17 -10 -2 0 -31 -17 -63 -38 -77 -50 -180
-103 -278 -142 -82 -33 -255 -86 -310 -96 -16 -2 -37 -7 -45 -9 -8 -2 -35 -7
-60 -10 -25 -3 -58 -8 -74 -11 -40 -9 -148 -12 -397 -14 -155 -1 -236 -6 -285
-17 -38 -9 -71 -18 -74 -22 -3 -3 -12 -7 -20 -9 -28 -6 -115 -54 -166 -92 -54
-41 -144 -139 -144 -159 0 -6 -4 -11 -8 -11 -14 0 -69 -121 -88 -191 -28 -107
-23 -289 11 -377 2 -7 5 -14 5 -17 1 -15 84 -160 108 -187 56 -65 136 -138
151 -138 5 0 11 -3 13 -7 9 -22 172 -89 242 -101 95 -15 841 -5 959 13 85 13
125 18 142 20 11 1 34 5 50 9 17 5 45 10 63 12 18 2 42 6 52 9 10 3 27 7 37 9
22 5 219 58 258 70 6 2 17 6 25 9 8 3 56 20 105 38 119 42 398 170 440 202 5
4 48 30 95 58 47 28 87 54 90 58 8 10 68 51 75 51 4 0 13 6 20 13 16 13 19 16
85 67 120 93 311 275 400 380 19 23 43 50 54 60 10 11 26 30 35 43 9 14 41 58
72 98 61 82 133 192 206 314 24 41 130 254 163 330 34 76 105 264 115 305 1 3
4 12 8 20 6 16 36 119 61 210 8 30 22 91 31 135 9 44 19 89 21 100 5 26 22
130 28 175 3 19 7 51 10 70 18 109 30 326 29 525 0 225 -11 411 -29 515 -3 19
-7 51 -9 70 -3 34 -8 66 -20 120 -3 14 -8 39 -10 55 -3 17 -7 41 -9 55 -6 40
-63 262 -75 293 -6 15 -9 27 -6 27 2 0 -3 17 -11 37 -9 20 -17 44 -19 52 -5
23 -73 210 -82 224 -4 7 -8 18 -9 25 -6 37 -170 358 -244 478 -52 84 -132 202
-162 239 -5 6 -21 26 -36 46 -248 324 -623 641 -952 806 -30 16 -57 30 -60 33
-22 23 -410 180 -480 195 -8 2 -59 15 -114 30 -54 15 -108 29 -120 31 -11 2
-32 6 -46 9 -53 11 -146 27 -173 31 -15 2 -44 5 -65 8 -136 19 -209 24 -397
26 -94 2 -155 6 -164 14 -8 6 -12 7 -9 1 4 -7 -61 -10 -188 -10 -107 0 -194 4
-194 8 0 5 -5 5 -11 1 -10 -6 -415 -9 -444 -3 -5 1 -14 0 -20 -1 -30 -6 -485
-4 -485 3 0 5 -5 5 -11 1 -10 -6 -415 -9 -444 -3 -5 1 -14 0 -20 -1 -30 -6
-485 -4 -488 3 -1 5 -5 5 -9 1z"/>
<path d="M2757 7484 c-3 -3 -59 -7 -124 -9 -65 -2 -129 -6 -143 -10 -14 -3
-32 -8 -40 -10 -8 -2 -15 -4 -15 -5 0 -1 -8 -3 -17 -5 -22 -4 -134 -61 -173
-88 -55 -38 -151 -141 -186 -202 -94 -161 -97 -182 -98 -788 -1 -282 -2 -519
-2 -527 0 -8 2 -31 4 -50 2 -19 0 -47 -4 -62 -4 -15 -4 -30 0 -32 4 -3 6 -24
4 -48 -5 -54 -5 -56 0 -98 2 -19 0 -47 -4 -62 -4 -15 -4 -30 0 -32 4 -3 6 -24
4 -48 -5 -54 -5 -56 0 -98 2 -19 0 -47 -4 -62 -4 -15 -4 -30 0 -32 4 -3 6 -24
4 -48 -5 -54 -5 -56 0 -98 2 -19 0 -47 -4 -62 -4 -15 -4 -30 0 -32 4 -3 6 -24
4 -48 -2 -24 -4 -50 -4 -58 1 -21 0 -943 0 -955 0 -5 2 -26 4 -45 2 -19 0 -47
-4 -62 -4 -15 -4 -30 0 -32 4 -3 6 -24 4 -48 -5 -54 -5 -56 0 -98 2 -19 0 -47
-4 -62 -4 -15 -4 -30 0 -32 4 -3 6 -24 4 -48 -5 -54 -5 -56 0 -98 2 -19 0 -47
-4 -62 -4 -15 -4 -30 0 -32 4 -3 6 -24 4 -48 -5 -54 -5 -56 0 -98 2 -19 0 -47
-4 -62 -4 -15 -4 -30 0 -32 4 -3 6 -24 4 -48 -2 -24 -4 -50 -3 -58 0 -16 0
-457 -1 -475 0 -5 2 -26 4 -45 2 -19 0 -47 -4 -62 -4 -14 -5 -29 -1 -32 8 -9
9 -57 1 -93 -4 -18 -4 -33 0 -33 5 0 6 -270 1 -365 -1 -11 1 -36 3 -55 2 -19
0 -47 -4 -62 -4 -14 -5 -29 -1 -32 4 -4 5 -277 1 -501 0 -5 2 -26 4 -45 2 -19
0 -47 -4 -62 -4 -14 -5 -29 -1 -32 8 -9 9 -57 1 -93 -4 -18 -4 -33 0 -33 3 0
6 -42 5 -93 0 -50 2 -96 5 -102 3 -5 6 -12 6 -15 11 -91 82 -234 162 -325 68
-78 207 -161 326 -194 94 -26 275 -22 364 7 137 46 246 120 323 221 14 18 30
38 35 44 21 25 64 114 58 121 -3 3 -2 6 3 6 6 0 16 24 24 52 8 29 16 60 19 68
3 8 6 1226 8 2705 2 1480 5 2695 7 2701 3 8 280 11 1013 11 554 0 1031 3 1058
7 68 9 151 35 205 64 25 14 58 31 73 39 46 24 187 169 187 192 0 5 4 11 8 13
16 6 75 143 88 203 13 60 13 240 0 295 -62 257 -247 443 -509 509 -66 17 -150
18 -1358 18 -708 1 -1291 3 -1297 7 -5 3 -12 3 -15 0z"/>
</g>
</svg>
