<svg xmlns="http://www.w3.org/2000/svg" version="1.1" width="289" height="300">
    <path d="M0 0 C7.67148246 6.53112696 12.97392791 13.93515568 17.3515625 22.96484375 C17.40990603 19.73575369 17.44527365 16.50680037 17.4765625 13.27734375 C17.50169922 11.90932617 17.50169922 11.90932617 17.52734375 10.51367188 C17.56214161 5.72896569 17.23777639 2.40849178 15.3515625 -2.03515625 C16.0115625 -3.02515625 16.6715625 -4.01515625 17.3515625 -5.03515625 C20.9765625 -5.22265625 20.9765625 -5.22265625 24.3515625 -5.03515625 C24.9765625 -2.72265625 24.9765625 -2.72265625 25.3515625 -0.03515625 C24.6915625 0.95484375 24.0315625 1.94484375 23.3515625 2.96484375 C22.90884846 7.28415873 23.0274222 11.62533901 23.0390625 15.96484375 C23.02294922 17.16625 23.00683594 18.36765625 22.99023438 19.60546875 C22.98926758 21.33023438 22.98926758 21.33023438 22.98828125 23.08984375 C22.98530029 24.14429688 22.98231934 25.19875 22.97924805 26.28515625 C23.39485734 29.27645307 23.99594333 30.15851869 26.3515625 31.96484375 C26.8878125 30.97484375 27.4240625 29.98484375 27.9765625 28.96484375 C30.3515625 25.96484375 30.3515625 25.96484375 33.4140625 25.46484375 C36.3515625 25.96484375 36.3515625 25.96484375 39.3515625 27.96484375 C41.29106493 27.7652485 41.29106493 27.7652485 43.3515625 27.08984375 C57.89838408 23.55205674 73.1336887 28.15721558 86.87109375 33.1328125 C100.5742628 37.72930857 116.95275919 35.59098947 130.3515625 30.96484375 C131.90230469 30.15466797 131.90230469 30.15466797 133.484375 29.328125 C136.48138294 27.90311714 138.10620136 27.84569468 141.3515625 27.96484375 C140.08404316 44.10408969 138.81325334 60.24385101 137.33911133 76.36572266 C137.13593767 78.63353083 136.9415329 80.90213876 136.75512695 83.17138672 C136.47903382 86.51626091 136.17425074 89.8574297 135.86328125 93.19921875 C135.78599289 94.21054871 135.70870453 95.22187866 135.6290741 96.26385498 C135.17318653 100.8583196 134.87088566 103.30562951 131.95703125 107.00439453 C128.96829789 109.25322595 125.92596428 111.26871606 122.6640625 113.08984375 C122.04974365 113.4360376 121.4354248 113.78223145 120.80249023 114.13891602 C106.44991329 121.99531943 92.84040619 121.91200069 77.3515625 117.96484375 C74.64369805 117.2754839 71.93539343 116.58789622 69.2265625 115.90234375 C68.55431641 115.73154297 67.88207031 115.56074219 67.18945312 115.38476562 C61.61611324 113.9873526 56.0227321 112.87799818 50.3515625 111.96484375 C50.57972656 112.57070312 50.80789062 113.1765625 51.04296875 113.80078125 C53.44129892 120.79142974 54.32309554 127.01741179 51.5234375 134.04296875 C49.70694897 137.47411375 47.79607287 140.14127944 44.3515625 141.96484375 C42.3567598 142.32798738 40.35675756 142.66433768 38.3515625 142.96484375 C38.35600372 143.72461517 38.36044495 144.4843866 38.36502075 145.2671814 C38.40505344 152.41859692 38.43552439 159.5699583 38.45518684 166.72145653 C38.46563524 170.39833725 38.47981352 174.07512558 38.50244141 177.75195312 C38.52413241 181.2986403 38.53612317 184.84523847 38.54131699 188.39198685 C38.5450195 189.74681627 38.55224939 191.10164069 38.56302261 192.45643234 C38.57748698 194.35030132 38.57837899 196.24425939 38.57861328 198.13818359 C38.5830545 199.21740082 38.58749573 200.29661804 38.59207153 201.40853882 C38.3515625 203.96484375 38.3515625 203.96484375 36.3515625 205.96484375 C32.8515625 206.27734375 32.8515625 206.27734375 29.3515625 205.96484375 C27.02957214 202.48185822 27.10535164 201.1383702 27.11206055 197.02807617 C27.10832932 195.80638229 27.10459808 194.58468842 27.10075378 193.32597351 C27.10305685 192.67353857 27.10535992 192.02110363 27.10773277 191.34889793 C27.11333378 189.30110639 27.10415442 187.25387968 27.0905304 185.20613098 C27.05343981 179.38470999 27.03484145 173.56347923 27.04614258 167.74194336 C27.05201109 164.17850275 27.03364845 160.615855 27.00025368 157.05257607 C26.98848099 155.04192644 27.00361421 153.03117719 27.01921082 151.02055359 C27.15443775 143.58445804 27.15443775 143.58445804 23.84350586 137.22705078 C23.02116455 136.48052246 22.19882324 135.73399414 21.3515625 134.96484375 C21.18398437 134.22621094 21.01640625 133.48757812 20.84375 132.7265625 C20.50479496 130.71292908 20.50479496 130.71292908 18.171875 129.734375 C16.83769531 129.26064453 16.83769531 129.26064453 15.4765625 128.77734375 C14.59226563 128.45378906 13.70796875 128.13023437 12.796875 127.796875 C10.98387116 127.17999031 9.16836647 126.57044507 7.3515625 125.96484375 C8.07424485 129.26335765 8.07424485 129.26335765 11.4140625 130.65234375 C12.3834375 131.08546875 13.3528125 131.51859375 14.3515625 131.96484375 C14.64453125 138.01953125 14.64453125 138.01953125 14.3515625 139.96484375 C13.3615625 140.62484375 12.3715625 141.28484375 11.3515625 141.96484375 C11.41738525 142.56208252 11.48320801 143.15932129 11.55102539 143.7746582 C15.85360645 183.98975681 15.85360645 183.98975681 7.75 196.421875 C5.24460143 202.76935127 6.24162816 209.58212292 6.46875 216.3125 C6.60721215 222.99714469 6.21766204 227.88930982 3.3515625 233.96484375 C4.36734375 234.12339844 5.383125 234.28195312 6.4296875 234.4453125 C15.30693254 235.91800027 23.18750621 238.02581659 31.3515625 241.96484375 C32.07859375 242.28324219 32.805625 242.60164062 33.5546875 242.9296875 C35.3515625 243.96484375 35.3515625 243.96484375 37.3515625 246.96484375 C37.4765625 250.33984375 37.4765625 250.33984375 36.3515625 253.96484375 C27.22216401 263.27275003 9.67113094 264.31557637 -2.6484375 265.96484375 C-3.68967773 266.11058838 -3.68967773 266.11058838 -4.75195312 266.25927734 C-13.71246187 267.341455 -22.76161902 267.20871036 -31.7734375 267.21484375 C-32.66249786 267.21551849 -33.55155823 267.21619324 -34.46755981 267.21688843 C-87.4601898 267.15309145 -87.4601898 267.15309145 -101.5859375 253.02734375 C-102.6484375 250.96484375 -102.6484375 250.96484375 -102.7109375 248.52734375 C-101.0151379 244.43747412 -97.7181411 241.89138326 -93.73803711 240.10961914 C-91.70196545 239.4054083 -89.66138425 238.79232567 -87.5859375 238.21484375 C-86.89177734 238.00730469 -86.19761719 237.79976562 -85.48242188 237.5859375 C-81.89981566 236.53122912 -78.32448233 235.62409545 -74.6484375 234.96484375 C-74.81085938 234.34609375 -74.97328125 233.72734375 -75.140625 233.08984375 C-75.85291546 228.70651785 -75.79271154 224.39787193 -75.7734375 219.96484375 C-75.77730469 219.07539063 -75.78117187 218.1859375 -75.78515625 217.26953125 C-75.77508155 210.51948366 -75.77508155 210.51948366 -75 207.125 C-74.52186131 204.18710337 -75.40501229 202.93859173 -76.8984375 200.40234375 C-84.50008943 186.17036208 -83.85616244 170.16829659 -83.40161133 154.47973633 C-83.34718471 152.49732387 -83.31969888 150.5142293 -83.29296875 148.53125 C-83.26565674 147.36537354 -83.23834473 146.19949707 -83.21020508 144.99829102 C-83.74234702 141.3148015 -84.94666702 140.39300879 -87.6484375 137.96484375 C-87.7109375 134.90234375 -87.7109375 134.90234375 -86.6484375 131.96484375 C-85.441875 131.34609375 -85.441875 131.34609375 -84.2109375 130.71484375 C-81.01786267 128.53420728 -81.05211668 127.47760286 -80.3359375 123.77734375 C-80.08626615 122.1762403 -79.8505437 120.57264384 -79.6484375 118.96484375 C-94.83510057 121.92015804 -94.83510057 121.92015804 -106.296875 131.37890625 C-107.92095903 133.28462334 -109.32008287 134.06932274 -111.6484375 134.96484375 C-114.7734375 134.83984375 -114.7734375 134.83984375 -117.6484375 133.96484375 C-119.0234375 131.90234375 -119.0234375 131.90234375 -119.6484375 129.96484375 C-120.5971875 130.29484375 -121.5459375 130.62484375 -122.5234375 130.96484375 C-127.12363922 132.26714118 -131.91324645 132.70248658 -136.6484375 131.96484375 C-139.52565366 130.23751848 -140.47339904 129.63317242 -141.3359375 126.33984375 C-139.35175668 116.59931971 -129.34776833 109.43484006 -121.6484375 103.96484375 C-116.42733722 100.51266033 -111.0529451 97.31706171 -105.65576172 94.14990234 C-103.10912627 92.64645203 -100.60003073 91.08443425 -98.0859375 89.52734375 C-93.77238492 86.9392122 -89.29810398 84.87412709 -84.6484375 82.96484375 C-85.13054687 81.92585938 -85.61265625 80.886875 -86.109375 79.81640625 C-90.14791938 70.95903542 -93.6484375 62.86204774 -93.6484375 52.96484375 C-94.5971875 52.86171875 -95.5459375 52.75859375 -96.5234375 52.65234375 C-99.6484375 51.96484375 -99.6484375 51.96484375 -101.6484375 48.96484375 C-102.14818 44.26726425 -101.38812781 42.61776416 -98.6484375 38.96484375 C-98.6484375 37.97484375 -98.6484375 36.98484375 -98.6484375 35.96484375 C-98.6484375 32.96484375 -98.6484375 32.96484375 -97.4609375 30.58984375 C-95.6484375 28.96484375 -95.6484375 28.96484375 -92.9609375 28.71484375 C-92.1978125 28.79734375 -91.4346875 28.87984375 -90.6484375 28.96484375 C-90.2978125 27.70671875 -89.9471875 26.44859375 -89.5859375 25.15234375 C-84.96038793 11.25377299 -75.15161089 1.11092401 -62.49609375 -5.7421875 C-41.98972501 -15.76373037 -18.25328487 -14.02649177 0 0 Z M21.3515625 52.96484375 C21.14853516 54.45371094 21.14853516 54.45371094 20.94140625 55.97265625 C19.07712791 68.19185071 14.78133439 77.39884665 8.3515625 87.96484375 C9.8292647 88.57258349 11.30883177 89.17578879 12.7890625 89.77734375 C13.61277344 90.11378906 14.43648437 90.45023438 15.28515625 90.796875 C19.26178558 92.31154019 23.31460668 93.61919181 27.3515625 94.96484375 C27.3515625 80.77484375 27.3515625 66.58484375 27.3515625 51.96484375 C25.32705329 51.96484375 23.32755724 52.5595115 21.3515625 52.96484375 Z M-34.6484375 192.96484375 C-36.38904409 196.24127968 -36.67648239 197.79470477 -36.0625 201.51953125 C-35.33128021 206.69905413 -36.58359825 211.11051974 -37.9609375 216.08984375 C-38.18716797 216.95738281 -38.41339844 217.82492188 -38.64648438 218.71875 C-39.83206397 223.20823584 -41.17669833 227.54962625 -42.6484375 231.96484375 C-36.3784375 231.96484375 -30.1084375 231.96484375 -23.6484375 231.96484375 C-24.3909375 230.62421875 -25.1334375 229.28359375 -25.8984375 227.90234375 C-31.51625654 216.55466939 -33.34293235 205.48504261 -32.6484375 192.96484375 C-33.3084375 192.96484375 -33.9684375 192.96484375 -34.6484375 192.96484375 Z " fill="#25306F" transform="translate(143.6484375,32.03515625)" />
    <path d="M0 0 C2.38312361 1.25891095 3.90608139 2.84748942 5.734375 4.82421875 C7.8610183 7.11575089 9.54252651 8.81113252 12.30078125 10.30859375 C15.61254905 12.48534254 16.87416993 14.87420361 18.796875 18.32421875 C19.3084314 19.24110474 19.3084314 19.24110474 19.83032227 20.17651367 C22.6934562 25.44735985 24.87531949 30.84762717 26.88671875 36.5 C27.5710498 38.86222991 27.5710498 38.86222991 28.796875 39.94921875 C28.21953585 34.28579665 26.09071132 29.67757927 23.734375 24.57421875 C23.35732422 23.74277344 22.98027344 22.91132813 22.59179688 22.0546875 C21.66644144 20.01656287 20.7346913 17.98163205 19.796875 15.94921875 C22.12109375 16.1328125 22.12109375 16.1328125 24.796875 16.94921875 C26.37890625 19.234375 26.37890625 19.234375 27.609375 22.01171875 C28.02832031 22.93082031 28.44726562 23.84992188 28.87890625 24.796875 C29.33330078 25.86228516 29.33330078 25.86228516 29.796875 26.94921875 C29.22947632 22.81948247 29.22947632 22.81948247 27.796875 18.94921875 C28.59351562 19.11164063 29.39015625 19.2740625 30.2109375 19.44140625 C34.56244756 20.05763316 38.78401675 20.09491619 43.171875 20.07421875 C44.39003906 20.08001953 44.39003906 20.08001953 45.6328125 20.0859375 C50.77464055 20.07769739 55.70782697 19.68625329 60.796875 18.94921875 C60.508125 19.62984375 60.219375 20.31046875 59.921875 21.01171875 C58.67090145 24.27814968 57.72239545 27.57767998 56.796875 30.94921875 C57.456875 30.94921875 58.116875 30.94921875 58.796875 30.94921875 C58.97476563 29.85673828 58.97476563 29.85673828 59.15625 28.7421875 C60.16551944 24.34201891 62.16713583 20.60608595 64.796875 16.94921875 C67.609375 15.38671875 67.609375 15.38671875 69.796875 14.94921875 C69.52617187 15.47257813 69.25546875 15.9959375 68.9765625 16.53515625 C64.78658904 25.10934035 61.27581984 34.06767722 57.796875 42.94921875 C61.28746916 40.23887505 62.19031326 36.47225468 63.546875 32.44921875 C67.49848882 21.46976609 72.81211991 10.38360739 83.796875 4.94921875 C87.50632782 4.60699575 90.34672122 5.64999766 93.796875 6.94921875 C95.63185547 7.56410156 95.63185547 7.56410156 97.50390625 8.19140625 C107.39346788 11.54581163 107.39346788 11.54581163 108.796875 12.94921875 C108.97711053 15.75616558 109.07494937 18.51508702 109.109375 21.32421875 C109.13837891 22.10539062 109.16738281 22.8865625 109.19726562 23.69140625 C109.22265625 25.97265625 109.22265625 25.97265625 108.796875 29.94921875 C106.90234375 31.48828125 106.90234375 31.48828125 104.796875 32.94921875 C103.83127319 35.5978974 103.34375769 38.16923172 102.796875 40.94921875 C100.01902134 40.41166653 97.25248155 39.84577357 94.484375 39.26171875 C93.69869141 39.11283203 92.91300781 38.96394531 92.10351562 38.81054688 C86.28165113 37.54707841 86.28165113 37.54707841 83.75390625 34.4296875 C82.796875 31.94921875 82.796875 31.94921875 82.796875 29.94921875 C82.136875 29.94921875 81.476875 29.94921875 80.796875 29.94921875 C81.250625 30.79484375 81.704375 31.64046875 82.171875 32.51171875 C84.46831135 37.36956488 85.796875 41.56130351 85.796875 46.94921875 C84.476875 47.27921875 83.156875 47.60921875 81.796875 47.94921875 C84.766875 47.94921875 87.736875 47.94921875 90.796875 47.94921875 C91.126875 49.26921875 91.456875 50.58921875 91.796875 51.94921875 C87.17623191 53.6675204 82.6718906 54.5152414 77.796875 55.07421875 C77.11109375 55.16058594 76.4253125 55.24695313 75.71875 55.3359375 C71.72262303 55.81638788 67.82008675 56.03722651 63.796875 55.94921875 C63.301875 53.96921875 63.301875 53.96921875 62.796875 51.94921875 C61.806875 54.91921875 61.806875 54.91921875 60.796875 57.94921875 C69.706875 57.28921875 78.616875 56.62921875 87.796875 55.94921875 C92.07238258 73.05124909 92.62441152 96.56079443 83.484375 111.94921875 C80.2037846 116.70230798 77.35765752 120.28157203 71.421875 121.39453125 C69.2092477 121.6641952 67.0229981 121.85027995 64.796875 121.94921875 C71.5143316 122.49758255 75.16137381 121.62954606 80.796875 117.94921875 C81.456875 117.94921875 82.116875 117.94921875 82.796875 117.94921875 C84.99980903 124.98439516 84.91733315 134.76629063 82.546875 141.76171875 C80.796875 144.94921875 80.796875 144.94921875 78.984375 146.44921875 C74.23533125 147.53471446 71.02586911 147.3554726 66.734375 145.01171875 C58.60683591 139.45403011 55.87672502 129.13327556 53.796875 119.94921875 C53.7265625 117.69140625 53.7265625 117.69140625 53.859375 115.76171875 C53.78136357 111.00302136 52.17473829 108.14949566 49.890625 104.05078125 C48.796875 101.94921875 48.796875 101.94921875 48.796875 99.94921875 C44.93166733 101.23762131 44.63972699 102.44599211 42.796875 106.01171875 C40.11876324 111.55218583 38.87224992 116.9177719 37.90576172 122.93139648 C36.38769523 132.04525611 33.73852791 141.51549167 26.796875 147.94921875 C22.6820226 150.57572028 19.66401998 151.47825625 14.796875 150.94921875 C11.58169922 150.12245926 10.87595877 149.07066882 9.046875 146.26171875 C6.25934108 139.09593861 7.05844445 129.2674506 8.796875 121.94921875 C11.7688135 123.07373602 14.13128187 124.17215666 16.796875 125.94921875 C19.08336348 126.19029201 19.08336348 126.19029201 21.484375 126.07421875 C22.29261719 126.05617188 23.10085937 126.038125 23.93359375 126.01953125 C24.54847656 125.99632812 25.16335937 125.973125 25.796875 125.94921875 C25.15621094 125.88605469 24.51554687 125.82289063 23.85546875 125.7578125 C16.7682898 124.75441161 13.14098738 122.60585706 8.796875 116.94921875 C4.41157238 110.85852067 3.20231317 104.24496469 1.796875 96.94921875 C1.62124023 96.07257568 1.44560547 95.19593262 1.26464844 94.29272461 C0.69956061 90.25364431 0.6722186 86.34136398 0.69921875 82.26953125 C0.7006337 81.45676727 0.70204865 80.6440033 0.70350647 79.80661011 C0.70907165 77.22910774 0.7216176 74.65169455 0.734375 72.07421875 C0.7393945 70.31901168 0.74395662 68.56380323 0.74804688 66.80859375 C0.75902966 62.52210143 0.77627008 58.23567518 0.796875 53.94921875 C-0.523125 53.28921875 -1.843125 52.62921875 -3.203125 51.94921875 C-2.890625 50.01171875 -2.890625 50.01171875 -2.203125 47.94921875 C-1.213125 47.61921875 -0.223125 47.28921875 0.796875 46.94921875 C1.77643722 44.78178478 1.77643722 44.78178478 2.40234375 42.109375 C2.66337891 41.12904297 2.92441406 40.14871094 3.19335938 39.13867188 C3.45439453 38.10677734 3.71542969 37.07488281 3.984375 36.01171875 C4.25701172 34.98369141 4.52964844 33.95566406 4.81054688 32.89648438 C6.23536165 27.98607095 6.23536165 27.98607095 6.796875 22.94921875 C6.41942139 23.73458008 6.04196777 24.51994141 5.65307617 25.32910156 C3.33844526 28.59631437 1.93626976 28.92633454 -1.90234375 29.87109375 C-3.02962891 30.1753125 -4.15691406 30.47953125 -5.31835938 30.79296875 C-7.67781661 31.39154073 -10.03979209 31.98028241 -12.40429688 32.55859375 C-19.83043619 34.58505587 -23.93433986 36.76512061 -28.53051758 43.03222656 C-30.39809073 45.17267093 -31.4324721 45.59024937 -34.203125 45.94921875 C-37.48883929 38.52064732 -37.48883929 38.52064732 -38.203125 34.94921875 C-38.533125 36.92921875 -38.863125 38.90921875 -39.203125 40.94921875 C-44.58984145 42.31727372 -49.59994664 43.40662106 -55.203125 42.94921875 C-55.863125 42.28921875 -56.523125 41.62921875 -57.203125 40.94921875 C-56.45267584 34.05358209 -49.54152979 29.08181397 -44.56958008 24.96826172 C-36.32022804 18.36461667 -27.47228616 12.99117803 -18.203125 7.94921875 C-17.0896167 7.34207031 -17.0896167 7.34207031 -15.95361328 6.72265625 C-13.77586238 5.54881964 -11.58737528 4.39954738 -9.390625 3.26171875 C-8.72691895 2.91020752 -8.06321289 2.55869629 -7.37939453 2.1965332 C-4.87237996 0.93652601 -2.84155884 -0.06549692 0 0 Z " fill="#FCFDFD" transform="translate(63.203125,118.05078125)" />
    <path d="M0 0 C0.78971191 0.00563965 1.57942383 0.0112793 2.39306641 0.01708984 C17.17030247 0.32274228 29.96213703 6.26897366 40.63671875 16.44921875 C44.94688351 21.28742819 48.10927642 26.6189436 51.1875 32.3125 C51.59484375 33.05371094 52.0021875 33.79492188 52.421875 34.55859375 C53.42107291 36.84757263 53.05817975 38.01707157 52.1875 40.3125 C51.8575 40.6425 51.5275 40.9725 51.1875 41.3125 C51.43998627 44.82995287 51.43998627 44.82995287 52.1875 48.3125 C52.8475 48.6425 53.5075 48.9725 54.1875 49.3125 C54.15494792 51.33072917 54.12239583 53.34895833 54.08984375 55.3671875 C54.06100758 57.39435404 54.06100758 57.39435404 55.1875 59.3125 C56.36438377 71.78746799 50.67673891 83.31661778 43.15234375 92.90625 C33.5923396 104.10173987 21.89373085 111.02691624 7.1875 113.3125 C-6.94123831 114.40069828 -21.2348726 111.26762162 -32.35742188 102.02929688 C-39.16978706 95.96737584 -44.73719731 89.53510719 -48.8125 81.3125 C-49.67875 79.58 -49.67875 79.58 -50.5625 77.8125 C-52.69895575 71.83042389 -54.1327554 65.69552151 -53.8125 59.3125 C-53.3175 58.8175 -53.3175 58.8175 -52.8125 58.3125 C-52.85375 57.03375 -52.895 55.755 -52.9375 54.4375 C-53.00692433 50.51502534 -53.00692433 50.51502534 -51.3125 48.75 C-50.8175 48.275625 -50.3225 47.80125 -49.8125 47.3125 C-49.58331364 44.1611875 -49.40911735 41.44908993 -50.4765625 38.44140625 C-51.26143875 33.46748119 -47.31387052 28.39924621 -44.8125 24.3125 C-42.04115329 20.72428256 -39.03906777 17.49346257 -35.8125 14.3125 C-35.24789062 13.73757812 -34.68328125 13.16265625 -34.1015625 12.5703125 C-24.79586668 3.80934034 -12.55605706 -0.09460969 0 0 Z " fill="#126FC0" transform="translate(106.8125,23.6875)" />
    <path d="M0 0 C0.9585791 -0.00708984 1.9171582 -0.01417969 2.90478516 -0.02148438 C11.03439414 0.17124062 18.07164939 2.13595728 25.75 4.6875 C43.50634584 10.53076791 60.67782155 10.95239263 78.375 4.6875 C80.3742641 4.01862968 82.37416745 3.3516638 84.375 2.6875 C83.77929168 16.54605009 82.75368067 30.34489493 81.43798828 44.15356445 C81.22723177 46.40694941 81.02591372 48.66123481 80.83349609 50.91625977 C80.55071609 54.22383524 80.23951461 57.52764359 79.921875 60.83203125 C79.84144958 61.83514847 79.76102417 62.83826569 79.67816162 63.8717804 C79.03815494 70.10122552 77.94435951 73.33556272 73.375 77.6875 C60.9376891 86.8655156 47.56141414 89.3227109 32.375 87.6875 C26.7929486 86.54755792 21.3991804 84.85009376 15.984375 83.09765625 C10.16982151 81.23581249 4.47269031 80.53480357 -1.625 80.4375 C-2.594375 80.41171875 -3.56375 80.3859375 -4.5625 80.359375 C-8.31463521 80.76138949 -11.19650977 82.15439413 -14.625 83.6875 C-14.74074722 73.30872757 -14.8296407 62.93010816 -14.88406086 52.55082226 C-14.91017734 47.73148524 -14.94561252 42.9125891 -15.00219727 38.09350586 C-15.05644435 33.44452381 -15.08640507 28.79596634 -15.09938622 24.14669228 C-15.1086393 22.37118149 -15.12670835 20.59569447 -15.15365028 18.820364 C-15.18984507 16.33700361 -15.1949496 13.85540702 -15.19262695 11.37182617 C-15.21060333 10.63455292 -15.22857971 9.89727966 -15.24710083 9.13766479 C-15.22627258 7.08537292 -15.22627258 7.08537292 -14.625 3.6875 C-10.05777404 -0.02450511 -5.66069912 0.03635775 0 0 Z " fill="#FEC100" transform="translate(196.625,61.3125)" />
    <path d="M0 0 C2.38312361 1.25891095 3.90608139 2.84748942 5.734375 4.82421875 C7.8610183 7.11575089 9.54252651 8.81113252 12.30078125 10.30859375 C15.61254905 12.48534254 16.87416993 14.87420361 18.796875 18.32421875 C19.3084314 19.24110474 19.3084314 19.24110474 19.83032227 20.17651367 C22.6934562 25.44735985 24.87531949 30.84762717 26.88671875 36.5 C27.5710498 38.86222991 27.5710498 38.86222991 28.796875 39.94921875 C28.21953585 34.28579665 26.09071132 29.67757927 23.734375 24.57421875 C23.35732422 23.74277344 22.98027344 22.91132813 22.59179688 22.0546875 C21.66644144 20.01656287 20.7346913 17.98163205 19.796875 15.94921875 C22.12109375 16.1328125 22.12109375 16.1328125 24.796875 16.94921875 C26.37890625 19.234375 26.37890625 19.234375 27.609375 22.01171875 C28.02832031 22.93082031 28.44726562 23.84992188 28.87890625 24.796875 C29.33330078 25.86228516 29.33330078 25.86228516 29.796875 26.94921875 C29.22947632 22.81948247 29.22947632 22.81948247 27.796875 18.94921875 C28.59351562 19.11164063 29.39015625 19.2740625 30.2109375 19.44140625 C34.56244756 20.05763316 38.78401675 20.09491619 43.171875 20.07421875 C44.39003906 20.08001953 44.39003906 20.08001953 45.6328125 20.0859375 C50.77464055 20.07769739 55.70782697 19.68625329 60.796875 18.94921875 C60.508125 19.62984375 60.219375 20.31046875 59.921875 21.01171875 C58.67090145 24.27814968 57.72239545 27.57767998 56.796875 30.94921875 C57.456875 30.94921875 58.116875 30.94921875 58.796875 30.94921875 C58.97476563 29.85673828 58.97476563 29.85673828 59.15625 28.7421875 C60.16551944 24.34201891 62.16713583 20.60608595 64.796875 16.94921875 C67.609375 15.38671875 67.609375 15.38671875 69.796875 14.94921875 C69.52617187 15.47257813 69.25546875 15.9959375 68.9765625 16.53515625 C64.78658904 25.10934035 61.27581984 34.06767722 57.796875 42.94921875 C61.28746916 40.23887505 62.19031326 36.47225468 63.546875 32.44921875 C67.49848882 21.46976609 72.81211991 10.38360739 83.796875 4.94921875 C87.50632782 4.60699575 90.34672122 5.64999766 93.796875 6.94921875 C95.63185547 7.56410156 95.63185547 7.56410156 97.50390625 8.19140625 C107.39346788 11.54581163 107.39346788 11.54581163 108.796875 12.94921875 C108.97711053 15.75616558 109.07494937 18.51508702 109.109375 21.32421875 C109.13837891 22.10539062 109.16738281 22.8865625 109.19726562 23.69140625 C109.22265625 25.97265625 109.22265625 25.97265625 108.796875 29.94921875 C106.90234375 31.48828125 106.90234375 31.48828125 104.796875 32.94921875 C103.83127319 35.5978974 103.34375769 38.16923172 102.796875 40.94921875 C100.01902134 40.41166653 97.25248155 39.84577357 94.484375 39.26171875 C93.69869141 39.11283203 92.91300781 38.96394531 92.10351562 38.81054688 C86.28165113 37.54707841 86.28165113 37.54707841 83.75390625 34.4296875 C82.796875 31.94921875 82.796875 31.94921875 82.796875 29.94921875 C82.136875 29.94921875 81.476875 29.94921875 80.796875 29.94921875 C81.250625 30.79484375 81.704375 31.64046875 82.171875 32.51171875 C84.46831135 37.36956488 85.796875 41.56130351 85.796875 46.94921875 C84.476875 47.27921875 83.156875 47.60921875 81.796875 47.94921875 C84.766875 47.94921875 87.736875 47.94921875 90.796875 47.94921875 C91.126875 49.26921875 91.456875 50.58921875 91.796875 51.94921875 C87.17623191 53.6675204 82.6718906 54.5152414 77.796875 55.07421875 C77.11109375 55.16058594 76.4253125 55.24695313 75.71875 55.3359375 C71.72262303 55.81638788 67.82008675 56.03722651 63.796875 55.94921875 C63.301875 53.96921875 63.301875 53.96921875 62.796875 51.94921875 C61.806875 54.91921875 61.806875 54.91921875 60.796875 57.94921875 C62.776875 57.94921875 64.756875 57.94921875 66.796875 57.94921875 C66.796875 58.27921875 66.796875 58.60921875 66.796875 58.94921875 C65.146875 58.94921875 63.496875 58.94921875 61.796875 58.94921875 C61.590625 59.77421875 61.384375 60.59921875 61.171875 61.44921875 C58.27828746 68.81471429 52.94179242 75.32455292 45.796875 78.94921875 C40.8288318 78.57661551 36.03436161 73.56254393 32.796875 69.94921875 C32.07075252 68.20652479 31.36283259 66.4561518 30.671875 64.69921875 C29.39139544 61.94742784 29.39139544 61.94742784 26.796875 59.94921875 C22.29591568 58.65234851 17.67986956 58.25204556 13.01904297 57.94628906 C6.37368266 57.46860022 2.09176279 56.04833328 -3.203125 51.94921875 C-2.890625 50.01171875 -2.890625 50.01171875 -2.203125 47.94921875 C-1.213125 47.61921875 -0.223125 47.28921875 0.796875 46.94921875 C1.77643722 44.78178478 1.77643722 44.78178478 2.40234375 42.109375 C2.66337891 41.12904297 2.92441406 40.14871094 3.19335938 39.13867188 C3.45439453 38.10677734 3.71542969 37.07488281 3.984375 36.01171875 C4.25701172 34.98369141 4.52964844 33.95566406 4.81054688 32.89648438 C6.23536165 27.98607095 6.23536165 27.98607095 6.796875 22.94921875 C6.41942139 23.73458008 6.04196777 24.51994141 5.65307617 25.32910156 C3.33844526 28.59631437 1.93626976 28.92633454 -1.90234375 29.87109375 C-3.02962891 30.1753125 -4.15691406 30.47953125 -5.31835938 30.79296875 C-7.67781661 31.39154073 -10.03979209 31.98028241 -12.40429688 32.55859375 C-19.83043619 34.58505587 -23.93433986 36.76512061 -28.53051758 43.03222656 C-30.39809073 45.17267093 -31.4324721 45.59024937 -34.203125 45.94921875 C-37.48883929 38.52064732 -37.48883929 38.52064732 -38.203125 34.94921875 C-38.533125 36.92921875 -38.863125 38.90921875 -39.203125 40.94921875 C-44.58984145 42.31727372 -49.59994664 43.40662106 -55.203125 42.94921875 C-55.863125 42.28921875 -56.523125 41.62921875 -57.203125 40.94921875 C-56.45267584 34.05358209 -49.54152979 29.08181397 -44.56958008 24.96826172 C-36.32022804 18.36461667 -27.47228616 12.99117803 -18.203125 7.94921875 C-17.0896167 7.34207031 -17.0896167 7.34207031 -15.95361328 6.72265625 C-13.77586238 5.54881964 -11.58737528 4.39954738 -9.390625 3.26171875 C-8.72691895 2.91020752 -8.06321289 2.55869629 -7.37939453 2.1965332 C-4.87237996 0.93652601 -2.84155884 -0.06549692 0 0 Z " fill="#3A477C" transform="translate(63.203125,118.05078125)" />
    <path d="M0 0 C0.78971191 0.00563965 1.57942383 0.0112793 2.39306641 0.01708984 C17.17030247 0.32274228 29.96213703 6.26897366 40.63671875 16.44921875 C44.94688351 21.28742819 48.10927642 26.6189436 51.1875 32.3125 C51.59484375 33.05371094 52.0021875 33.79492188 52.421875 34.55859375 C53.42107291 36.84757263 53.05817975 38.01707157 52.1875 40.3125 C51.8575 40.6425 51.5275 40.9725 51.1875 41.3125 C51.43998627 44.82995287 51.43998627 44.82995287 52.1875 48.3125 C52.8475 48.6425 53.5075 48.9725 54.1875 49.3125 C54.15494792 51.33072917 54.12239583 53.34895833 54.08984375 55.3671875 C54.06100758 57.39435404 54.06100758 57.39435404 55.1875 59.3125 C56.36438377 71.78746799 50.67673891 83.31661778 43.15234375 92.90625 C33.5923396 104.10173987 21.89373085 111.02691624 7.1875 113.3125 C-6.94123831 114.40069828 -21.2348726 111.26762162 -32.35742188 102.02929688 C-39.16978706 95.96737584 -44.73719731 89.53510719 -48.8125 81.3125 C-49.67875 79.58 -49.67875 79.58 -50.5625 77.8125 C-52.69895575 71.83042389 -54.1327554 65.69552151 -53.8125 59.3125 C-53.3175 58.8175 -53.3175 58.8175 -52.8125 58.3125 C-52.85375 57.03375 -52.895 55.755 -52.9375 54.4375 C-53.00692433 50.51502534 -53.00692433 50.51502534 -51.3125 48.75 C-50.8175 48.275625 -50.3225 47.80125 -49.8125 47.3125 C-49.58331364 44.1611875 -49.40911735 41.44908993 -50.4765625 38.44140625 C-51.26143875 33.46748119 -47.31387052 28.39924621 -44.8125 24.3125 C-42.04115329 20.72428256 -39.03906777 17.49346257 -35.8125 14.3125 C-35.24789062 13.73757812 -34.68328125 13.16265625 -34.1015625 12.5703125 C-24.79586668 3.80934034 -12.55605706 -0.09460969 0 0 Z M-23.8125 28.3125 C-25.33230469 28.85777344 -25.33230469 28.85777344 -26.8828125 29.4140625 C-34.18089008 32.24915529 -41.22254749 35.72254749 -46.8125 41.3125 C-47.08587897 43.78780515 -47.23705727 46.14671134 -47.2890625 48.62890625 C-47.31327774 49.72464211 -47.31327774 49.72464211 -47.33798218 50.84251404 C-47.36566989 52.39336663 -47.38711169 53.94434126 -47.40283203 55.49536133 C-47.4370447 57.84374814 -47.52472001 60.1863302 -47.61328125 62.53320312 C-47.8238975 72.253994 -47.8238975 72.253994 -43.19921875 80.6015625 C-41.04966322 82.62428376 -41.04966322 82.62428376 -38.8125 84.3125 C-37.92498047 85.03215942 -37.92498047 85.03215942 -37.01953125 85.76635742 C-23.14790357 96.21281647 -7.96208094 99.68821502 9.1875 98.3125 C24.91932785 96.0344039 36.35866429 88.3948536 47.1875 77.3125 C49.53898175 72.60953649 48.66686951 65.75589885 48.75732422 60.53759766 C48.79395961 58.89419236 48.84850911 57.25108402 48.92138672 55.60888672 C49.67545884 46.25527161 49.67545884 46.25527161 46.32861328 37.9597168 C43.99854061 36.38069338 41.81300508 35.31124324 39.1875 34.3125 C38.23101562 33.79300781 37.27453125 33.27351563 36.2890625 32.73828125 C18.23841304 24.62403031 -4.82097315 21.43151201 -23.8125 28.3125 Z " fill="#FAFAFB" transform="translate(106.8125,23.6875)" />
    <path d="M0 0 C7.67148246 6.53112696 12.97392791 13.93515568 17.3515625 22.96484375 C17.40990603 19.73575369 17.44527365 16.50680037 17.4765625 13.27734375 C17.50169922 11.90932617 17.50169922 11.90932617 17.52734375 10.51367188 C17.56214161 5.72896569 17.23777639 2.40849178 15.3515625 -2.03515625 C16.0115625 -3.02515625 16.6715625 -4.01515625 17.3515625 -5.03515625 C20.9765625 -5.22265625 20.9765625 -5.22265625 24.3515625 -5.03515625 C24.9765625 -2.72265625 24.9765625 -2.72265625 25.3515625 -0.03515625 C24.6915625 0.95484375 24.0315625 1.94484375 23.3515625 2.96484375 C22.90884846 7.28415873 23.0274222 11.62533901 23.0390625 15.96484375 C23.02294922 17.16625 23.00683594 18.36765625 22.99023438 19.60546875 C22.98926758 21.33023438 22.98926758 21.33023438 22.98828125 23.08984375 C22.98530029 24.14429688 22.98231934 25.19875 22.97924805 26.28515625 C23.39485734 29.27645307 23.99594333 30.15851869 26.3515625 31.96484375 C26.8878125 30.97484375 27.4240625 29.98484375 27.9765625 28.96484375 C28.7603125 27.97484375 29.5440625 26.98484375 30.3515625 25.96484375 C33.6015625 25.58984375 33.6015625 25.58984375 36.3515625 25.96484375 C36.6815625 27.61484375 37.0115625 29.26484375 37.3515625 30.96484375 C38.0115625 30.96484375 38.6715625 30.96484375 39.3515625 30.96484375 C39.0215625 58.02484375 38.6915625 85.08484375 38.3515625 112.96484375 C38.0215625 112.96484375 37.6915625 112.96484375 37.3515625 112.96484375 C37.0215625 86.56484375 36.6915625 60.16484375 36.3515625 32.96484375 C36.0215625 61.67484375 35.6915625 90.38484375 35.3515625 119.96484375 C36.0115625 120.29484375 36.6715625 120.62484375 37.3515625 120.96484375 C37.4340625 120.20171875 37.5165625 119.43859375 37.6015625 118.65234375 C38.3515625 115.96484375 38.3515625 115.96484375 40.1015625 114.08984375 C42.3515625 112.96484375 42.3515625 112.96484375 44.9765625 113.02734375 C47.3515625 113.96484375 47.3515625 113.96484375 48.4765625 115.625 C50.30365887 120.51085145 49.86745755 125.84410774 49.3515625 130.96484375 C47.26561699 135.44576375 44.96653589 138.1188544 40.3515625 139.96484375 C36.4912905 140.60822242 32.98823832 140.85293603 29.47265625 138.9453125 C26.79891037 136.81275856 25.43869356 135.22623694 24.3515625 131.96484375 C24.28258081 130.13269019 24.26688527 128.29816132 24.2890625 126.46484375 C24.29808594 125.50578125 24.30710937 124.54671875 24.31640625 123.55859375 C24.32800781 122.70265625 24.33960938 121.84671875 24.3515625 120.96484375 C24.3515625 119.97484375 24.3515625 118.98484375 24.3515625 117.96484375 C25.6715625 117.30484375 26.9915625 116.64484375 28.3515625 115.96484375 C28.0215625 110.35484375 27.6915625 104.74484375 27.3515625 98.96484375 C24.8765625 97.99546875 22.4015625 97.02609375 19.8515625 96.02734375 C18.7078418 95.57113647 18.7078418 95.57113647 17.54101562 95.10571289 C12.78108772 93.28298205 8.45224066 92.27330809 3.3515625 91.96484375 C0.98865565 93.27619787 0.98865565 93.27619787 -0.6484375 94.96484375 C-1.3084375 94.96484375 -1.9684375 94.96484375 -2.6484375 94.96484375 C-1.15464698 91.47142889 0.87750555 89.27430566 3.5390625 86.58984375 C11.52635621 77.88111706 17.28264073 66.55619323 17.5390625 54.58984375 C17.60286453 51.13376876 17.60286453 51.13376876 16.3515625 48.96484375 C16.12079327 43.42638221 16.12079327 43.42638221 17.3515625 40.96484375 C15.8665625 40.46984375 15.8665625 40.46984375 14.3515625 39.96484375 C13.7265625 36.58984375 13.7265625 36.58984375 13.3515625 32.96484375 C14.3415625 31.97484375 14.3415625 31.97484375 15.3515625 30.96484375 C14.61938073 21.74890362 6.91153031 12.11231866 0.3515625 5.96484375 C-13.0098905 -5.33918198 -28.62336318 -8.35584457 -45.6484375 -7.03515625 C-58.90401113 -4.70172547 -70.1581911 2.62334062 -78.6484375 12.96484375 C-82.57618781 18.69404345 -85.99650943 23.92605791 -86.6484375 30.96484375 C-86.3184375 31.29484375 -85.9884375 31.62484375 -85.6484375 31.96484375 C-85.2109375 34.27734375 -85.2109375 34.27734375 -85.6484375 36.96484375 C-88.6484375 39.27734375 -88.6484375 39.27734375 -91.6484375 40.96484375 C-91.4628125 42.26421875 -91.2771875 43.56359375 -91.0859375 44.90234375 C-90.76953125 47.1171875 -90.76953125 47.1171875 -90.6484375 48.96484375 C-91.6484375 49.96484375 -91.6484375 49.96484375 -94.0859375 50.15234375 C-96.6484375 49.96484375 -96.6484375 49.96484375 -98.6484375 47.96484375 C-98.8134375 47.28421875 -98.9784375 46.60359375 -99.1484375 45.90234375 C-99.3959375 44.94328125 -99.3959375 44.94328125 -99.6484375 43.96484375 C-100.3084375 43.63484375 -100.9684375 43.30484375 -101.6484375 42.96484375 C-101.1534375 42.42859375 -100.6584375 41.89234375 -100.1484375 41.33984375 C-98.381441 39.01027024 -98.381441 39.01027024 -98.6484375 35.96484375 C-98.6484375 32.96484375 -98.6484375 32.96484375 -97.4609375 30.58984375 C-95.6484375 28.96484375 -95.6484375 28.96484375 -92.9609375 28.71484375 C-92.1978125 28.79734375 -91.4346875 28.87984375 -90.6484375 28.96484375 C-90.1225 27.07765625 -90.1225 27.07765625 -89.5859375 25.15234375 C-84.96038793 11.25377299 -75.15161089 1.11092401 -62.49609375 -5.7421875 C-41.98972501 -15.76373037 -18.25328487 -14.02649177 0 0 Z M21.3515625 52.96484375 C21.14853516 54.45371094 21.14853516 54.45371094 20.94140625 55.97265625 C19.07712791 68.19185071 14.78133439 77.39884665 8.3515625 87.96484375 C9.8292647 88.57258349 11.30883177 89.17578879 12.7890625 89.77734375 C13.61277344 90.11378906 14.43648438 90.45023438 15.28515625 90.796875 C19.26178558 92.31154019 23.31460668 93.61919181 27.3515625 94.96484375 C27.3515625 80.77484375 27.3515625 66.58484375 27.3515625 51.96484375 C25.32705329 51.96484375 23.32755724 52.5595115 21.3515625 52.96484375 Z " fill="#36386A" transform="translate(143.6484375,32.03515625)" />
    <path d="M0 0 C2.38312361 1.25891095 3.90608139 2.84748942 5.734375 4.82421875 C7.8610183 7.11575089 9.54252651 8.81113252 12.30078125 10.30859375 C20.20781441 15.50570475 25.19262809 30.15988544 27.796875 38.94921875 C27.796875 40.26921875 27.796875 41.58921875 27.796875 42.94921875 C26.806875 43.60921875 25.816875 44.26921875 24.796875 44.94921875 C24.466875 45.93921875 24.136875 46.92921875 23.796875 47.94921875 C7.41256916 48.25706583 7.41256916 48.25706583 2.796875 45.94921875 C2.48939281 40.16086645 3.55318484 35.51141177 5.296875 30.01171875 C5.53535156 29.23248047 5.77382812 28.45324219 6.01953125 27.65039062 C6.60329678 25.74731499 7.19887476 23.84786953 7.796875 21.94921875 C7.39984375 22.86058594 7.0028125 23.77195313 6.59375 24.7109375 C2.68932956 30.56242174 -6.0746003 31.06618237 -12.453125 32.60742188 C-19.8717592 34.61028373 -23.93879972 36.77363279 -28.52832031 43.0300293 C-30.39729271 45.1717191 -31.43066576 45.5903452 -34.203125 45.94921875 C-37.48883929 38.52064732 -37.48883929 38.52064732 -38.203125 34.94921875 C-38.533125 36.92921875 -38.863125 38.90921875 -39.203125 40.94921875 C-44.58984145 42.31727372 -49.59994664 43.40662106 -55.203125 42.94921875 C-55.863125 42.28921875 -56.523125 41.62921875 -57.203125 40.94921875 C-56.45267584 34.05358209 -49.54152979 29.08181397 -44.56958008 24.96826172 C-36.32022804 18.36461667 -27.47228616 12.99117803 -18.203125 7.94921875 C-17.0896167 7.34207031 -17.0896167 7.34207031 -15.95361328 6.72265625 C-13.77586238 5.54881964 -11.58737528 4.39954738 -9.390625 3.26171875 C-8.72691895 2.91020752 -8.06321289 2.55869629 -7.37939453 2.1965332 C-4.87237996 0.93652601 -2.84155884 -0.06549692 0 0 Z " fill="#FBFBFC" transform="translate(63.203125,118.05078125)" />
    <path d="M0 0 C2.18872897 3.53177583 2.21514673 6.3466148 2.16796875 10.453125 C2.17505859 11.71253906 2.18214844 12.97195312 2.18945312 14.26953125 C2.18815867 16.90763403 2.16755467 19.54580311 2.12695312 22.18359375 C2.16115614 30.54061548 2.16115614 30.54061548 6.12890625 37.625 C8.0091268 39.44904941 8.0091268 39.44904941 10 41 C10.56420654 41.45600586 11.12841309 41.91201172 11.7097168 42.38183594 C13.34590154 43.59934917 15.01055611 44.68612601 16.75 45.75 C17.65298828 46.31557617 17.65298828 46.31557617 18.57421875 46.89257812 C31.64219628 54.83558773 47.03867666 57.21693144 62.05859375 54.31640625 C75.52961593 50.99346219 85.38165897 44.86678526 95 35 C96.49983085 32.0003383 96.23902055 28.88053039 96.31640625 25.5859375 C96.3475779 24.49147812 96.3475779 24.49147812 96.37937927 23.37490845 C96.44481917 21.04170237 96.50373368 18.70838279 96.5625 16.375 C96.60569053 14.79425905 96.64930499 13.21352961 96.69335938 11.6328125 C96.80049481 7.75532496 96.90177782 3.87772315 97 0 C97.46019531 0.63421875 97.92039062 1.2684375 98.39453125 1.921875 C99.86228402 4.01646143 99.86228402 4.01646143 101.6875 5.25 C103.88923818 8.1856509 103.11398162 11.40957906 103 15 C103.495 15.99 103.495 15.99 104 17 C105.17688377 29.47496799 99.48923891 41.00411778 91.96484375 50.59375 C82.4048396 61.78923987 70.70623085 68.71441624 56 71 C41.87126169 72.08819828 27.5776274 68.95512162 16.45507812 59.71679688 C9.64271294 53.65487584 4.07530269 47.22260719 0 39 C-0.86625 37.2675 -0.86625 37.2675 -1.75 35.5 C-3.88645575 29.51792389 -5.3202554 23.38302151 -5 17 C-4.67 16.67 -4.34 16.34 -4 16 C-4.04125 14.72125 -4.0825 13.4425 -4.125 12.125 C-4.1874242 8.22001971 -4.1874242 8.22001971 -2.5625 6.3125 C-2.046875 5.879375 -1.53125 5.44625 -1 5 C-0.27802838 2.39388923 -0.27802838 2.39388923 0 0 Z " fill="#F7F7F9" transform="translate(58,66)" />
    <path d="M0 0 C1.38638672 0.52207031 1.38638672 0.52207031 2.80078125 1.0546875 C4.63576172 1.66957031 4.63576172 1.66957031 6.5078125 2.296875 C16.39737413 5.65128038 16.39737413 5.65128038 17.80078125 7.0546875 C17.98101678 9.86163433 18.07885562 12.62055577 18.11328125 15.4296875 C18.14228516 16.21085937 18.17128906 16.99203125 18.20117188 17.796875 C18.2265625 20.078125 18.2265625 20.078125 17.80078125 24.0546875 C15.90625 25.59375 15.90625 25.59375 13.80078125 27.0546875 C12.83517944 29.70336615 12.34766394 32.27470047 11.80078125 35.0546875 C9.02292759 34.51713528 6.2563878 33.95124232 3.48828125 33.3671875 C2.70259766 33.21830078 1.91691406 33.06941406 1.10742188 32.91601562 C-4.71444262 31.65254716 -4.71444262 31.65254716 -7.2421875 28.53515625 C-8.19921875 26.0546875 -8.19921875 26.0546875 -8.19921875 24.0546875 C-8.85921875 24.0546875 -9.51921875 24.0546875 -10.19921875 24.0546875 C-9.72484375 24.8384375 -9.25046875 25.6221875 -8.76171875 26.4296875 C-6.80185126 30.97658008 -6.48011003 35.15361894 -6.19921875 40.0546875 C-12.9640752 41.6667384 -19.24880789 42.32087345 -26.19921875 42.0546875 C-26.63234375 41.095625 -26.63234375 41.095625 -27.07421875 40.1171875 C-28.02745326 37.90262671 -28.02745326 37.90262671 -30.19921875 37.0546875 C-27.45384531 22.87025805 -21.78770779 9.1409584 -9.7890625 0.3359375 C-6.08235825 -1.49784681 -3.88036913 -1.20062458 0 0 Z " fill="#FBFBFC" transform="translate(154.19921875,123.9453125)" />
    <path d="M0 0 C0.53625 0.28875 1.0725 0.5775 1.625 0.875 C2.18478317 11.13769136 -1.01590579 18.84161263 -7.375 26.875 C-9.79005922 29.23115534 -11.72933749 30.56915986 -14.75 32 C-19.15227142 31.79036803 -21.50509135 29.02937096 -24.375 25.875 C-28.99008938 19.85852503 -32.38584106 14.2394868 -33 6.5625 C-33.11214844 5.23798828 -33.11214844 5.23798828 -33.2265625 3.88671875 C-33.27554688 3.22285156 -33.32453125 2.55898437 -33.375 1.875 C-23.34830512 -5.03227869 -11.0018032 -5.21138046 0 0 Z " fill="#F9F8F9" transform="translate(123.375,162.125)" />
    <path d="M0 0 C0.66 0 1.32 0 2 0 C2.00364563 0.67572052 2.00729126 1.35144104 2.01104736 2.04763794 C2.05289738 9.08842205 2.12226138 16.12855582 2.20751953 23.16894531 C2.23572378 25.79550671 2.25694096 28.4221529 2.27099609 31.04882812 C2.292432 34.82726434 2.33908948 38.60468163 2.390625 42.3828125 C2.39185364 43.55490265 2.39308228 44.7269928 2.39434814 45.93460083 C2.50726781 52.23774441 2.72190327 56.22733141 7 61 C9.87329001 63.66347573 12.40050464 64.557693 16.1875 65.4375 C20.56311088 66.55307847 24.46082956 67.98172046 28.54296875 69.88671875 C31.55591857 71.25188679 34.60891963 72.47768416 37.6875 73.6875 C39.27111328 74.31205078 39.27111328 74.31205078 40.88671875 74.94921875 C54.2428753 79.45713106 68.99174708 77.07608852 81.6171875 71.36328125 C83.67794698 70.3032503 85.72253547 69.21061696 87.7421875 68.07421875 C88.48726563 67.71972656 89.23234375 67.36523438 90 67 C90.66 67.33 91.32 67.66 92 68 C81.50454487 78.24556334 69.41625259 82.28895622 55.01269531 82.46850586 C46.42215605 82.33979348 38.72835672 80.03776833 30.609375 77.41015625 C24.79482151 75.54831249 19.09769031 74.84730357 13 74.75 C12.030625 74.72421875 11.06125 74.6984375 10.0625 74.671875 C6.20975991 74.93300827 6.20975991 74.93300827 0 78 C0 52.26 0 26.52 0 0 Z " fill="#C39302" transform="translate(182,67)" />
    <path d="M0 0 C1.01835937 0.25652344 2.03671875 0.51304688 3.0859375 0.77734375 C11.56445162 3.1235359 21.64544709 6.64544709 28 13 C28.26118182 15.55901607 28.40053198 18.00561563 28.44140625 20.5703125 C28.46206398 21.70289993 28.46206398 21.70289993 28.48313904 22.85836792 C28.50643803 24.46051693 28.52368973 26.06276344 28.53540039 27.66503906 C28.56218334 30.09625516 28.63701154 32.52301698 28.71289062 34.953125 C28.93486036 48.00263559 28.93486036 48.00263559 24.7890625 52.85546875 C22.8605957 54.58398438 22.8605957 54.58398438 21 56 C20.11957031 56.77730469 19.23914063 57.55460937 18.33203125 58.35546875 C11.89759183 63.03415416 5.53133396 66.41991749 -2 69 C-2.71285156 69.24621094 -3.42570312 69.49242188 -4.16015625 69.74609375 C-19.19458395 73.94646372 -35.5945309 70.87446467 -49.10546875 63.73828125 C-55.78336303 59.72793988 -62.82664499 54.72263097 -67 48 C-67.514749 45.18850762 -67.74990641 42.98900818 -67.734375 40.1875 C-67.74390198 39.4555542 -67.75342896 38.7236084 -67.76324463 37.96948242 C-67.77535086 36.42989777 -67.77462926 34.89016405 -67.76171875 33.35058594 C-67.75002248 31.00450879 -67.80234061 28.66560606 -67.859375 26.3203125 C-67.95652185 15.52032734 -67.95652185 15.52032734 -65.54907227 11.69384766 C-63.76993352 10.12939533 -62.11511834 9.05328908 -60 8 C-59.21496094 7.49210937 -58.42992188 6.98421875 -57.62109375 6.4609375 C-50.6739216 3.00599321 -43.50029433 0.92702776 -36 -1 C-35.0562854 -1.26695679 -35.0562854 -1.26695679 -34.09350586 -1.53930664 C-23.6617342 -3.83490467 -10.22025525 -2.768645 0 0 Z M-43 3 C-43 3.66 -43 4.32 -43 5 C-43.7115625 4.94585937 -44.423125 4.89171875 -45.15625 4.8359375 C-48.55634354 5.03209674 -50.52189113 5.9937325 -53.5 7.625 C-54.4178125 8.11226562 -55.335625 8.59953125 -56.28125 9.1015625 C-60.97155454 12.34071717 -60.97155454 12.34071717 -64 17 C-64.66011976 21.30564597 -64.76158628 25.53339994 -64.70678711 29.88549805 C-64.68756424 31.93066497 -64.7269658 33.96901509 -64.77148438 36.01367188 C-64.90532301 44.12975227 -64.90532301 44.12975227 -61.375 51.1484375 C-59.75867164 52.69533269 -59.75867164 52.69533269 -58 54 C-57.46286377 54.42837158 -56.92572754 54.85674316 -56.37231445 55.2980957 C-54.72928864 56.51839771 -53.05359583 57.61244785 -51.3125 58.6875 C-50.40491943 59.25984375 -50.40491943 59.25984375 -49.47900391 59.84375 C-35.7549403 68.24049641 -20.44674109 69.86605977 -4.6875 67.4375 C1.91838606 65.76017937 8.38292565 62.84826072 14 59 C15.01449219 58.3080957 16.02898437 57.61619141 17.07421875 56.90332031 C21.77273479 53.37775372 25.89641553 49.97878803 27.09130859 44.0012207 C27.52366902 40.29613128 27.50946417 36.64104708 27.34472656 32.91845703 C27.24908548 30.60285814 27.26262602 28.30538984 27.2890625 25.98828125 C27.41116256 18.47952605 27.41116256 18.47952605 24.2956543 11.94287109 C22.2298905 10.63452979 20.30797664 9.78970258 18 9 C17.17113281 8.51273438 16.34226562 8.02546875 15.48828125 7.5234375 C-2.58750404 -2.01746174 -23.62874692 -1.61612839 -43 3 Z " fill="#2D3A74" transform="translate(127,51)" />
    <path d="M0 0 C2.375 0.9375 2.375 0.9375 3.5 2.59765625 C5.32709637 7.4835077 4.89089505 12.81676399 4.375 17.9375 C2.28905449 22.41842 -0.01002661 25.09151065 -4.625 26.9375 C-8.485272 27.58087867 -11.98832418 27.82559228 -15.50390625 25.91796875 C-18.17765213 23.78541481 -19.53786894 22.19889319 -20.625 18.9375 C-21.13365551 14.40963214 -21.50251779 11.06181967 -18.625 7.375 C-17.965 6.900625 -17.305 6.42625 -16.625 5.9375 C-15.965 6.5975 -15.305 7.2575 -14.625 7.9375 C-11.54152174 8.10431109 -11.54152174 8.10431109 -8.625 7.9375 C-8.25375 6.7928125 -8.25375 6.7928125 -7.875 5.625 C-6.06680144 1.73737309 -4.41908921 -0.10521641 0 0 Z " fill="#F7F8FA" transform="translate(188.625,145.0625)" />
    <path d="M0 0 C17.7553276 5.84461493 34.9287328 6.26457004 52.625 0 C54.6242641 -0.66887032 56.62416745 -1.3358362 58.625 -2 C58.02343942 13.12804999 56.61982489 28.13119194 55.0625 43.1875 C54.82575044 45.5097227 54.58941975 47.83198814 54.35351562 50.15429688 C53.78215729 55.77003171 53.20568554 61.38522236 52.625 67 C52.295 67 51.965 67 51.625 67 C51.04705235 54.15190274 52.75939655 41.43893674 54.125 28.6875 C54.36649858 26.38613197 54.60738919 24.08470005 54.84765625 21.78320312 C55.43309219 16.18804578 56.02604541 10.59372548 56.625 5 C55.56168457 5.28222412 54.49836914 5.56444824 53.40283203 5.85522461 C44.01904458 8.25972403 35.24188282 9.6877775 25.5 9.5625 C24.28932861 9.55371826 23.07865723 9.54493652 21.83129883 9.53588867 C12.48884784 9.32300362 5.20925718 7.77666487 -3.375 4 C-14.34613417 -0.36955828 -26.67367149 -3.98753185 -38.3671875 0.02734375 C-39.02976563 0.34832031 -39.69234375 0.66929688 -40.375 1 C-39.375 -2 -39.375 -2 -37.57836914 -3.15771484 C-25.83896038 -7.64535587 -11.3151903 -3.7698319 0 0 Z " fill="#F2D56D" transform="translate(222.375,66)" />
    <path d="M0 0 C1.19496094 0.24363281 1.19496094 0.24363281 2.4140625 0.4921875 C6.76557256 1.10841441 10.98714175 1.14569744 15.375 1.125 C16.59316406 1.13080078 16.59316406 1.13080078 17.8359375 1.13671875 C22.97776555 1.12847864 27.91095197 0.73703454 33 0 C32.72414062 0.66386719 32.44828125 1.32773438 32.1640625 2.01171875 C30.77693014 5.57264578 29.56959346 9.18393229 28.375 12.8125 C27.59125 15.184375 26.8075 17.55625 26 20 C19.73 20 13.46 20 7 20 C6.5875 18.370625 6.175 16.74125 5.75 15.0625 C4.31802103 9.77308484 2.39359566 4.92084386 0 0 Z " fill="#F9F9FB" transform="translate(91,137)" />
    <path d="M0 0 C0.33 0.66 0.66 1.32 1 2 C3.76724779 2.45427995 6.46377429 2.79769342 9.25 3.0625 C10.77623057 3.21821155 12.30227905 3.37571984 13.828125 3.53515625 C14.54806641 3.61008301 15.26800781 3.68500977 16.00976562 3.76220703 C18.37140064 4.04437491 20.68054042 4.47580213 23 5 C23.33 4.01 23.66 3.02 24 2 C25.51637158 4.59949414 26.18172389 6.77881665 26.875 9.75 C28.84126556 17.95039436 32.98514379 24.11060804 39 29.9375 C40.98155622 31.20033202 40.98155622 31.20033202 43.4375 30.9375 C51.18812592 28.10190515 54.57111191 21.01434641 58 14 C60.31 14 62.62 14 65 14 C65 14.33 65 14.66 65 15 C63.35 15 61.7 15 60 15 C59.79375 15.825 59.5875 16.65 59.375 17.5 C56.48141246 24.86549554 51.14491742 31.37533417 44 35 C39.0319568 34.62739676 34.23748661 29.61332518 31 26 C30.27387752 24.25730604 29.56595759 22.50693305 28.875 20.75 C27.59452044 17.99820909 27.59452044 17.99820909 25 16 C20.49904068 14.70312976 15.88299456 14.30282681 11.22216797 13.99707031 C4.57680766 13.51938147 0.29488779 12.09911453 -5 8 C-4.6875 6.0625 -4.6875 6.0625 -4 4 C-3.01 3.67 -2.02 3.34 -1 3 C-0.67 2.01 -0.34 1.02 0 0 Z " fill="#273770" transform="translate(65,162)" />
    <path d="M0 0 C1.32 0 2.64 0 4 0 C4 29.7 4 59.4 4 90 C2.68 89.67 1.36 89.34 0 89 C0 59.63 0 30.26 0 0 Z " fill="#ED9E3A" transform="translate(175,62)" />
    <path d="M0 0 C2.475 0.495 2.475 0.495 5 1 C5 20.47 5 39.94 5 60 C3.02 60.495 3.02 60.495 1 61 C0 60 0 60 -0.12025452 57.60191345 C-0.11803391 56.53824051 -0.11581329 55.47456757 -0.11352539 54.37866211 C-0.11344986 53.17749252 -0.11337433 51.97632294 -0.11329651 50.73875427 C-0.10813522 49.4314888 -0.10297394 48.12422333 -0.09765625 46.77734375 C-0.09579198 45.43355868 -0.09436812 44.08977293 -0.09336853 42.74598694 C-0.08954402 39.20317723 -0.07971432 35.6604083 -0.06866455 32.11761475 C-0.05844899 28.50484773 -0.0538706 24.89207416 -0.04882812 21.27929688 C-0.03809198 14.1861812 -0.02101636 7.09309326 0 0 Z " fill="#DB8C2D" transform="translate(174,174)" />
    <path d="M0 0 C11.80486023 4.18775768 25.63378848 4.61162115 38 3.375 C38.94875 3.2821875 39.8975 3.189375 40.875 3.09375 C41.926875 2.98546875 41.926875 2.98546875 43 2.875 C42 4.875 42 4.875 40.31591797 5.48583984 C23.36420281 9.14873544 8.27532995 7.18500738 -8.01928711 1.7409668 C-18.64780726 -1.67036205 -31.11572924 -3.55756176 -42.14086914 -0.53881836 C-44 -0.125 -44 -0.125 -46 -1.125 C-45.67 -2.115 -45.34 -3.105 -45 -4.125 C-29.38697358 -7.91818646 -14.92741965 -5.52252243 0 0 Z " fill="#2E336D" transform="translate(227,64.125)" />
    <path d="M0 0 C2.30432096 2.10253014 3.60904282 3.97249871 4.875 6.8125 C6.23385533 9.67241645 7.67160835 11.98543671 9.75 14.375 C12 17 12 17 12 19 C12.61875 19.309375 13.2375 19.61875 13.875 19.9375 C15.25 20.625 16.625 21.3125 18 22 C22.86758823 22.44250802 25.78389753 21.40920141 30 19 C28.12791633 27.7843926 28.12791633 27.7843926 25 30 C22.06699268 31.46650366 20.27962656 31.36440295 17 31 C11.20255026 28.67421292 7.84417911 25.2153782 5.09765625 19.67578125 C2.4977468 13.33792368 0 6.8934371 0 0 Z " fill="#B9BBD0" transform="translate(117,234)" />
    <path d="M0 0 C0.93457031 0.00322266 1.86914062 0.00644531 2.83203125 0.00976562 C3.80011719 0.01814453 4.76820312 0.02652344 5.765625 0.03515625 C6.74917969 0.03966797 7.73273438 0.04417969 8.74609375 0.04882812 C11.16933291 0.06059142 13.59244773 0.07702941 16.015625 0.09765625 C16.015625 0.42765625 16.015625 0.75765625 16.015625 1.09765625 C7.600625 1.59265625 7.600625 1.59265625 -0.984375 2.09765625 C-0.984375 2.42765625 -0.984375 2.75765625 -0.984375 3.09765625 C-2.54554319 3.43717244 -4.10838838 3.76898169 -5.671875 4.09765625 C-6.97705078 4.37609375 -6.97705078 4.37609375 -8.30859375 4.66015625 C-10.92150464 5.08737672 -13.34250538 5.17381826 -15.984375 5.09765625 C-15.984375 5.75765625 -15.984375 6.41765625 -15.984375 7.09765625 C-16.768125 7.32453125 -17.551875 7.55140625 -18.359375 7.78515625 C-21.37289926 8.87625986 -24.21351892 10.04790442 -27.109375 11.41015625 C-28.35074219 11.99216797 -28.35074219 11.99216797 -29.6171875 12.5859375 C-32.55931897 14.46482344 -34.06887606 16.16434601 -35.984375 19.09765625 C-36.53316625 22.67222869 -36.53316625 22.67222869 -36.375 26.5859375 C-36.36934021 27.2891362 -36.36368042 27.9923349 -36.35784912 28.71684265 C-36.33557269 30.94865873 -36.28539873 33.17883086 -36.234375 35.41015625 C-36.21429843 36.92901316 -36.19604968 38.44789541 -36.1796875 39.96679688 C-36.13573857 43.6776117 -36.06677421 47.38747335 -35.984375 51.09765625 C-37.304375 50.76765625 -38.624375 50.43765625 -39.984375 50.09765625 C-40.1580955 45.3655862 -40.28474662 40.63539057 -40.36889648 35.90087891 C-40.4039883 34.29247695 -40.45167747 32.68429657 -40.51245117 31.07666016 C-41.00304795 17.76046188 -41.00304795 17.76046188 -38.55541992 13.76513672 C-36.76772595 12.19816651 -35.1151316 11.13695238 -32.984375 10.09765625 C-32.19933594 9.58976562 -31.41429688 9.081875 -30.60546875 8.55859375 C-23.6582966 5.10364946 -16.48466933 3.02468401 -8.984375 1.09765625 C-8.05262451 0.82852417 -8.05262451 0.82852417 -7.10205078 0.55395508 C-4.67813558 0.03167038 -2.47907226 -0.01511629 0 0 Z " fill="#424A84" transform="translate(99.984375,48.90234375)" />
    <path d="M0 0 C0 9.24 0 18.48 0 28 C-2.64 28 -5.28 28 -8 28 C-8.14522934 24.08372337 -8.23404757 20.16813847 -8.3125 16.25 C-8.35439453 15.13882813 -8.39628906 14.02765625 -8.43945312 12.8828125 C-8.56317195 4.66788232 -8.56317195 4.66788232 -5.66796875 1.234375 C-3 0 -3 0 0 0 Z " fill="#8E99D3" transform="translate(77,64)" />
    <path d="M0 0 C0.66 0.33 1.32 0.66 2 1 C-1.2017227 7.23658038 -5.59248239 8.75350889 -12 11 C-29.60998553 15.85725974 -42.88726791 12.51752573 -60 7 C-60 6.01 -60 5.02 -60 4 C-54.89903847 4.94052436 -49.99000999 5.99536895 -45.0625 7.625 C-39.81709035 9.09161953 -34.7865713 9.32776487 -29.375 9.375 C-28.58746338 9.38869629 -27.79992676 9.40239258 -26.98852539 9.41650391 C-19.12039357 9.35575881 -12.45531922 6.96271213 -5.5 3.375 C-4.6646875 2.94960937 -3.829375 2.52421875 -2.96875 2.0859375 C-1.05858717 1.15113399 -1.05858717 1.15113399 0 0 Z " fill="#292E68" transform="translate(268,139)" />
    <path d="M0 0 C2.61579215 2.61579215 2.99975681 3.99714988 3.3203125 7.75390625 C3.14808553 12.03087611 2.19827765 15.88307623 0.875 19.9375 C0.64981689 20.63262695 0.42463379 21.32775391 0.19262695 22.04394531 C-2.27530761 29.29630564 -5.08250777 35.74449673 -12.0625 39.5625 C-15.11778702 40.85850467 -17.65177042 41.4185287 -21 41 C-21.495 39.515 -21.495 39.515 -22 38 C-21.34773438 37.81566406 -20.69546875 37.63132812 -20.0234375 37.44140625 C-13.91949534 35.41576173 -10.49130856 33.27845543 -7.2421875 27.6796875 C-3.1618708 18.87749486 -1.30915718 9.56029254 0 0 Z " fill="#3B417A" transform="translate(102,231)" />
    <path d="M0 0 C0.66 1.32 1.32 2.64 2 4 C2.66 3.34 3.32 2.68 4 2 C4.36351563 3.57587891 4.36351563 3.57587891 4.734375 5.18359375 C6.38246773 12.14838219 7.98494709 18.8459684 11.16796875 25.30078125 C12 27 12 27 13 30 C14.93330603 31.09166275 14.93330603 31.09166275 17 32 C17.66 32.66 18.32 33.32 19 34 C18.67 34.66 18.34 35.32 18 36 C19.65 36.33 21.3 36.66 23 37 C23 37.33 23 37.66 23 38 C18.78976877 38.63153468 16.35518794 37.91661901 12.9375 35.5625 C4.24497711 28.39323826 1.92592541 17.65176626 0 7 C-0.06162233 4.66748052 -0.08176793 2.33190018 0 0 Z " fill="#373E78" transform="translate(113,230)" />
    <path d="M0 0 C3.71561586 0.58844595 5.58874609 2.16206566 8.375 4.625 C22.61775186 16.30867126 38.0796102 19.39074876 56 20 C53.47635942 22.52364058 51.83865427 22.28268291 48.3894043 22.32958984 C47.64215088 22.3239502 46.89489746 22.31831055 46.125 22.3125 C45.35776611 22.30686035 44.59053223 22.3012207 43.80004883 22.29541016 C26.85152522 21.93748002 13.5800984 14.60347393 1.22265625 3.38671875 C0 2 0 2 0 0 Z " fill="#353E7E" transform="translate(62,100)" />
    <path d="M0 0 C0.33 0 0.66 0 1 0 C0.7432502 11.22696861 -2.02287718 23.79162021 -9.46484375 32.546875 C-12.74515093 35.65189859 -15.69126481 36.84295178 -20.125 37.375 C-23.30619641 36.96006134 -24.67036211 36.15043497 -27 34 C-26.443125 33.93683594 -25.88625 33.87367188 -25.3125 33.80859375 C-18.58033621 32.72826341 -14.41220498 30.19767444 -10 25 C-5.02711859 17.52035276 -2.66388124 8.50174863 0 0 Z " fill="#B9BBD0" transform="translate(101,232)" />
    <path d="M0 0 C3.4375 1 3.4375 1 5.375 2.75 C6.67120853 5.49491218 6.96237013 7.00074212 6.4375 10 C4.8125 12.3125 4.8125 12.3125 2.4375 14 C-1.2342087 14.61195145 -2.85063568 14.48706506 -5.9375 12.375 C-8.04956506 9.28813568 -8.17445145 7.6717087 -7.5625 4 C-5.27647022 0.43379354 -4.27192374 0 0 0 Z " fill="#434073" transform="translate(108.5625,31)" />
    <path d="M0 0 C1.19496094 0.24363281 1.19496094 0.24363281 2.4140625 0.4921875 C6.76557256 1.10841441 10.98714175 1.14569744 15.375 1.125 C16.59316406 1.13080078 16.59316406 1.13080078 17.8359375 1.13671875 C22.97776555 1.12847864 27.91095197 0.73703454 33 0 C32.375 2.375 32.375 2.375 31 5 C25.96885082 7.30822552 21.22687913 7.27093326 15.8125 7.1875 C15.00619141 7.18685547 14.19988281 7.18621094 13.36914062 7.18554688 C9.91688412 7.15971952 7.30839059 7.10279686 4 6 C3.67 6.66 3.34 7.32 3 8 C2.01 5.36 1.02 2.72 0 0 Z " fill="#B6B8CE" transform="translate(91,137)" />
    <path d="M0 0 C-0.64990234 1.88598633 -0.64990234 1.88598633 -2 4 C-4.48681641 5.0456543 -4.48681641 5.0456543 -7.6015625 5.82421875 C-8.73207031 6.13166016 -9.86257812 6.43910156 -11.02734375 6.75585938 C-13.39911031 7.37004648 -15.77410637 7.97191337 -18.15234375 8.56054688 C-25.58598954 10.61048204 -29.72671496 12.80732714 -34.32958984 19.08520508 C-36.19576317 21.22440376 -37.2311546 21.64093546 -40 22 C-40.33 21.01 -40.66 20.02 -41 19 C-39.35473571 17.30634559 -37.69152065 15.6465334 -36 14 C-35.13375 13.154375 -34.2675 12.30875 -33.375 11.4375 C-29.19299191 7.99919954 -24.06841717 6.67264976 -19 5 C-17.55952093 4.46630621 -16.12162914 3.92552942 -14.6875 3.375 C-4.86836028 -0.28637413 -4.86836028 -0.28637413 0 0 Z " fill="#B9BBD0" transform="translate(69,142)" />
    <path d="M0 0 C0.75 1.625 0.75 1.625 1 4 C-1.28190248 8.30050852 -3.43963932 11.17585573 -8 13 C-11.88113941 13.64685657 -15.36945671 13.86851388 -18.9140625 11.98046875 C-20.5625 10.6875 -20.5625 10.6875 -23 8 C-23 7.01 -23 6.02 -23 5 C-21.91460937 5.04640625 -20.82921875 5.0928125 -19.7109375 5.140625 C-18.26565269 5.17816487 -16.82033789 5.21456264 -15.375 5.25 C-14.30572266 5.30027344 -14.30572266 5.30027344 -13.21484375 5.3515625 C-7.9902614 5.4474264 -5.19015522 4.37790974 -1 1 C-0.67 0.67 -0.34 0.34 0 0 Z " fill="#B9BBD0" transform="translate(192,159)" />
    <path d="M0 0 C1.6875 0.05078125 1.6875 0.05078125 4 0.3125 C4.88429688 0.41046875 5.76859375 0.5084375 6.6796875 0.609375 C8.32324219 0.80273438 8.32324219 0.80273438 10 1 C11.48176375 1.17193604 12.96353511 1.34380655 14.4453125 1.515625 C18.63105679 2.0034077 22.81569619 2.50001938 27 3 C27.33 4.65 27.66 6.3 28 8 C25.02016976 7.88480819 22.04154208 7.75809198 19.0625 7.625 C18.23169922 7.5940625 17.40089844 7.563125 16.54492188 7.53125 C10.81752631 7.26382297 5.56641529 6.38177413 0 5 C-0.5625 3.0625 -0.5625 3.0625 -1 1 C-0.67 0.67 -0.34 0.34 0 0 Z " fill="#00DA8B" transform="translate(61,166)" />
    <path d="M0 0 C1.96293766 1.96293766 2.68347281 3.27094455 3.8125 5.75 C6.34878028 10.94513172 9.76840394 16.22071459 15 19 C19.41875532 18.88669858 21.8965438 17.02586979 25 14 C27.71136892 10.19470702 29.95002539 6.19355536 32 2 C34.31 2 36.62 2 39 2 C39 2.33 39 2.66 39 3 C37.35 3 35.7 3 34 3 C33.79375 3.825 33.5875 4.65 33.375 5.5 C30.48141246 12.86549554 25.14491742 19.37533417 18 23 C12.99072511 22.62430438 8.30201487 17.59625381 5 14 C3.95546413 12.23392688 2.95488893 10.44111029 2 8.625 C0.14692454 5.09087081 0.14692454 5.09087081 -3.1484375 3.140625 C-5.60176616 2.79050951 -5.60176616 2.79050951 -9 3 C-9 2.67 -9 2.34 -9 2 C-6.03 2 -3.06 2 0 2 C0 1.34 0 0.68 0 0 Z " fill="#393F79" transform="translate(91,174)" />
    <path d="M0 0 C0.33 1.32 0.66 2.64 1 4 C-3.62064309 5.71830165 -8.1249844 6.56602265 -13 7.125 C-14.02867187 7.25455078 -14.02867187 7.25455078 -15.078125 7.38671875 C-19.07425197 7.86716913 -22.97678825 8.08800776 -27 8 C-27 6.35 -27 4.7 -27 3 C-23.43826523 2.4944461 -19.87550181 1.99653886 -16.3125 1.5 C-14.80139648 1.28537109 -14.80139648 1.28537109 -13.25976562 1.06640625 C-11.79506836 0.86337891 -11.79506836 0.86337891 -10.30078125 0.65625 C-9.40528564 0.53056641 -8.50979004 0.40488281 -7.5871582 0.27539062 C-5.03602639 0.00383484 -2.5633257 -0.04847897 0 0 Z " fill="#00DC8B" transform="translate(154,166)" />
    <path d="M0 0 C0 0.99 0 1.98 0 3 C-3.46941546 2.54177532 -6.67395049 2.10868317 -10 1 C-11.65291859 0.90687288 -13.30930516 0.86930824 -14.96484375 0.8671875 C-15.92970703 0.86589844 -16.89457031 0.86460938 -17.88867188 0.86328125 C-18.89478516 0.86714844 -19.90089844 0.87101562 -20.9375 0.875 C-21.93974609 0.87113281 -22.94199219 0.86726563 -23.97460938 0.86328125 C-25.42383789 0.86521484 -25.42383789 0.86521484 -26.90234375 0.8671875 C-27.78398193 0.86831543 -28.66562012 0.86944336 -29.57397461 0.87060547 C-31.98537607 0.91815318 -31.98537607 0.91815318 -34.19360352 1.57080078 C-36 2 -36 2 -38 1 C-37.67 0.01 -37.34 -0.98 -37 -2 C-25.07375369 -4.89748283 -11.33572898 -5.66786449 0 0 Z " fill="#2D336B" transform="translate(219,62)" />
    <path d="M0 0 C1.96484375 1.7421875 1.96484375 1.7421875 3.9375 3.875 C6.18592518 6.22771206 7.93605917 7.96221678 10.75 9.625 C13.84129494 11.51412469 15.21596644 13.8944601 17 17 C17 17.66 17 18.32 17 19 C8.27507452 15.9847684 0.41546865 9.40114049 -5 2 C-5.66 1.34 -6.32 0.68 -7 0 C-3.80539452 -1.06486849 -3.0299288 -1.18437445 0 0 Z " fill="#B9BBD0" transform="translate(65,119)" />
    <path d="M0 0 C-0.33 4.29 -0.66 8.58 -1 13 C-1.66 13 -2.32 13 -3 13 C-3.33 15.31 -3.66 17.62 -4 20 C-4.33 20 -4.66 20 -5 20 C-5 15.05 -5 10.1 -5 5 C-6.258125 5.474375 -7.51625 5.94875 -8.8125 6.4375 C-16.9464451 8.93300848 -25.55982299 8.7487011 -34 9 C-34 8.67 -34 8.34 -34 8 C-33.44127197 7.89977539 -32.88254395 7.79955078 -32.30688477 7.69628906 C-29.72313999 7.22588698 -27.14296726 6.73804885 -24.5625 6.25 C-23.24475586 6.01410156 -23.24475586 6.01410156 -21.90039062 5.7734375 C-16.53979141 4.74483544 -11.94687225 3.29740998 -7.08569336 0.79589844 C-5 0 -5 0 0 0 Z " fill="#494C7C" transform="translate(285,60)" />
    <path d="M0 0 C5.36336754 -0.34978484 9.56555752 0.58278804 14.66796875 2.24609375 C16.76588252 2.92431378 18.85544497 3.49220881 21 4 C20.67 5.98 20.34 7.96 20 10 C17.22017242 9.48911277 14.4556199 8.94339325 11.6875 8.375 C10.90181641 8.23449219 10.11613281 8.09398437 9.30664062 7.94921875 C7.05159612 7.46942205 5.08608475 6.98578706 3 6 C0.95703125 2.8515625 0.95703125 2.8515625 0 0 Z " fill="#B6B8CE" transform="translate(146,149)" />
    <path d="M0 0 C0.99 0.33 1.98 0.66 3 1 C1.02 1.99 1.02 1.99 -1 3 C-0.34 14.55 0.32 26.1 1 38 C-0.32 37.67 -1.64 37.34 -3 37 C-3.07415168 32.21284377 -3.12860204 27.42602173 -3.16479492 22.63842773 C-3.17988243 21.00978777 -3.20035506 19.38118844 -3.22631836 17.75268555 C-3.26270449 15.41184465 -3.2797262 13.07154081 -3.29296875 10.73046875 C-3.30845261 10.00224411 -3.32393646 9.27401947 -3.33988953 8.52372742 C-3.34158031 3.44615804 -3.34158031 3.44615804 -1.48168945 1.0168457 C-0.99273193 0.68128662 -0.50377441 0.34572754 0 0 Z " fill="#464D84" transform="translate(63,62)" />
    <path d="M0 0 C0.66 0 1.32 0 2 0 C0.09431766 7.43216114 -4.37184216 14.92113363 -11 19 C-13.5625 20 -13.5625 20 -16 20 C-18.3125 18.0625 -18.3125 18.0625 -20 16 C-19.33613281 15.75765625 -18.67226562 15.5153125 -17.98828125 15.265625 C-9.8731158 12.18541621 -5.39016544 9.24368294 -1.11328125 1.609375 C-0.56220703 0.81273437 -0.56220703 0.81273437 0 0 Z " fill="#B7B9CF" transform="translate(122,174)" />
    <path d="M0 0 C2.265625 0.0625 2.265625 0.0625 5 1 C6.54137015 3.37880748 7.64816977 5.42865118 8.75 8 C9.05365479 8.67683838 9.35730957 9.35367676 9.67016602 10.05102539 C11.82800185 15.06603449 12.90361328 19.50595668 13 25 C12.01 25 11.02 25 10 25 C9.69707031 24.11699219 9.39414063 23.23398438 9.08203125 22.32421875 C6.41571279 14.68624186 3.50304339 7.30421812 0 0 Z " fill="#01A482" transform="translate(83,134)" />
    <path d="M0 0 C0.99 0 1.98 0 3 0 C3 10.23 3 20.46 3 31 C2.01 31 1.02 31 0 31 C0 20.77 0 10.54 0 0 Z " fill="#8796DA" transform="translate(80,62)" />
    <path d="M0 0 C0 3.63274905 -1.05096594 5.30379731 -2.75 8.5 C-5.67922544 14.19185986 -7.97051975 19.93543549 -10 26 C-10.99 26 -11.98 26 -13 26 C-12.28243208 19.64439841 -10.42216658 14.20052667 -7.625 8.5 C-7.33294678 7.88882324 -7.04089355 7.27764648 -6.73999023 6.64794922 C-5.00373444 3.24414355 -3.69370484 1.23665889 0 0 Z " fill="#01A282" transform="translate(132,133)" />
    <path d="M0 0 C1.08087891 0.35578125 1.08087891 0.35578125 2.18359375 0.71875 C-2.75522928 7.0505744 -8.62697196 13.12533066 -16.81640625 14.71875 C-13.95771893 8.48161404 -7.62135687 -0.76107863 0 0 Z " fill="#B9BBD0" transform="translate(149.81640625,123.28125)" />
    <path d="M0 0 C5.15426308 0.95035219 10.17366219 2.02672986 15.1875 3.5625 C22.03688871 5.511033 28.91521211 5.7227276 36 6 C36 6.33 36 6.66 36 7 C34.77023438 7.09087891 34.77023438 7.09087891 33.515625 7.18359375 C32.43796875 7.26738281 31.3603125 7.35117188 30.25 7.4375 C29.18265625 7.51871094 28.1153125 7.59992188 27.015625 7.68359375 C24.15100895 7.88898423 24.15100895 7.88898423 22.07763672 8.57983398 C19.60349965 9.08018532 18.15657546 8.73729637 15.7421875 8.0390625 C14.95199219 7.81476563 14.16179687 7.59046875 13.34765625 7.359375 C12.53167969 7.11703125 11.71570313 6.8746875 10.875 6.625 C9.63943359 6.27308594 9.63943359 6.27308594 8.37890625 5.9140625 C2.36142616 4.18071308 2.36142616 4.18071308 0 3 C0 2.01 0 1.02 0 0 Z " fill="#303361" transform="translate(208,143)" />
    <path d="M0 0 C1.46799782 2.73792019 2.43116317 5.28150253 3.1484375 8.30078125 C3.34953125 9.11353516 3.550625 9.92628906 3.7578125 10.76367188 C4.16615923 12.4500405 4.56988043 14.13753655 4.96875 15.82617188 C7.01850081 24.04463479 9.92813277 30.04969294 17 35 C20.21265916 36.32350658 20.21265916 36.32350658 23 37 C23 37.33 23 37.66 23 38 C18.78976877 38.63153468 16.35518794 37.91661901 12.9375 35.5625 C4.24497711 28.39323826 1.92592541 17.65176626 0 7 C-0.06162233 4.66748052 -0.08176793 2.33190018 0 0 Z " fill="#8B8FB1" transform="translate(113,230)" />
    <path d="M0 0 C0.33 0 0.66 0 1 0 C1.21896246 5.77674497 0.66326625 10.45290347 -1.125 15.9375 C-1.45951172 16.97910278 -1.45951172 16.97910278 -1.80078125 18.04174805 C-4.08990149 24.81188438 -6.99074777 30.56393867 -12.625 35.125 C-15.33546607 36.12359276 -16.31177133 35.80533433 -19 35 C-18.48050781 34.72027344 -17.96101563 34.44054687 -17.42578125 34.15234375 C-16.72839844 33.75144531 -16.03101562 33.35054688 -15.3125 32.9375 C-14.62800781 32.55464844 -13.94351563 32.17179687 -13.23828125 31.77734375 C-7.0624803 26.87334823 -4.98086065 20.78772702 -3.25 13.3125 C-2.93869141 12.05083008 -2.93869141 12.05083008 -2.62109375 10.76367188 C-2.23828338 9.2064981 -1.86151175 7.64781637 -1.49316406 6.0871582 C-1.01264606 4.05352037 -0.51090566 2.02619242 0 0 Z " fill="#9497B7" transform="translate(104,235)" />
    <path d="M0 0 C2.9375 0.1875 2.9375 0.1875 3.9375 1.1875 C4.125 4.125 4.125 4.125 3.9375 7.1875 C1.9375 9.1875 1.9375 9.1875 -0.5625 9.4375 C-3.0625 9.1875 -3.0625 9.1875 -5.0625 7.1875 C-5.3125 4.6875 -5.3125 4.6875 -5.0625 2.1875 C-3.0625 0.1875 -3.0625 0.1875 0 0 Z " fill="#F53F0D" transform="translate(108.0625,33.8125)" />
    <path d="M0 0 C0.33 1.32 0.66 2.64 1 4 C-4.35298945 6.59474256 -9.03830941 7.63650448 -14.9375 8.1875 C-16.10635742 8.3102832 -16.10635742 8.3102832 -17.29882812 8.43554688 C-19.19820797 8.63364171 -21.09898762 8.81823841 -23 9 C-22.67 6.69 -22.34 4.38 -22 2 C-21.34 2 -20.68 2 -20 2 C-20 2.99 -20 3.98 -20 5 C-18.46279297 4.7834375 -18.46279297 4.7834375 -16.89453125 4.5625 C-15.53387846 4.37482375 -14.17320001 4.18733358 -12.8125 4 C-12.13896484 3.90460938 -11.46542969 3.80921875 -10.77148438 3.7109375 C-7.15335423 3.21675387 -3.65203599 2.88653869 0 3 C0 2.01 0 1.02 0 0 Z " fill="#2B3D73" transform="translate(148,161)" />
    <path d="M0 0 C7.2 -0.36 7.2 -0.36 10.5 1.125 C12 3 12 3 12.5 5.9375 C12 9 12 9 10.25 11.4375 C8 13 8 13 5.75 12.75 C5.1725 12.5025 4.595 12.255 4 12 C4 11.34 4 10.68 4 10 C5.32 9.67 6.64 9.34 8 9 C8 7.35 8 5.7 8 4 C5.36 3.67 2.72 3.34 0 3 C0 2.01 0 1.02 0 0 Z " fill="#4667E6" transform="translate(103,166)" />
    <path d="M0 0 C1.57156655 3.1431331 0.11705576 5.365464 -0.9375 8.625 C-1.31777344 9.81351563 -1.69804688 11.00203125 -2.08984375 12.2265625 C-2.39019531 13.14179688 -2.69054687 14.05703125 -3 15 C-3.40863281 14.49855469 -3.81726563 13.99710938 -4.23828125 13.48046875 C-5.87756736 11.79472176 -5.87756736 11.79472176 -8.04296875 11.92578125 C-8.75066406 12.05339844 -9.45835938 12.18101562 -10.1875 12.3125 C-11.445625 12.539375 -12.70375 12.76625 -14 13 C-14.33 11.68 -14.66 10.36 -15 9 C-13.87851562 8.77957031 -13.87851562 8.77957031 -12.734375 8.5546875 C-6.06092043 7.25548015 -6.06092043 7.25548015 -1.3125 2.8125 C-0.6628125 1.4203125 -0.6628125 1.4203125 0 0 Z " fill="#363D7A" transform="translate(71,139)" />
    <path d="M0 0 C-2.36369317 2.7808155 -5.07750541 4.21689419 -8.28125 5.83984375 C-10.60675629 7.4095605 -11.64688979 8.49734484 -13 11 C-13.50165407 14.07683653 -13.60238254 17.13713282 -13.6875 20.25 C-13.72166016 21.09046875 -13.75582031 21.9309375 -13.79101562 22.796875 C-13.87323568 24.86412204 -13.93830157 26.93203874 -14 29 C-14.33 29 -14.66 29 -15 29 C-15.0868329 25.541824 -15.14033282 22.08392656 -15.1875 18.625 C-15.21263672 17.64015625 -15.23777344 16.6553125 -15.26367188 15.640625 C-15.27333984 14.69960937 -15.28300781 13.75859375 -15.29296875 12.7890625 C-15.3086792 11.91975098 -15.32438965 11.05043945 -15.34057617 10.15478516 C-15.22818604 9.44370605 -15.1157959 8.73262695 -15 8 C-14.01 7.34 -13.02 6.68 -12 6 C-12.33 5.34 -12.66 4.68 -13 4 C-11.59248779 3.13083113 -10.1735479 2.28014851 -8.75 1.4375 C-7.96109375 0.96183594 -7.1721875 0.48617187 -6.359375 -0.00390625 C-3.69155375 -1.13022151 -2.65498232 -1.0169313 0 0 Z " fill="#2A3681" transform="translate(77,57)" />
    <path d="M0 0 C0.33 0 0.66 0 1 0 C1 1.65 1 3.3 1 5 C10.405 4.01 10.405 4.01 20 3 C20 3.99 20 4.98 20 6 C12.63512596 6.99862699 5.42686315 7.10331031 -2 7 C-2.125 4.625 -2.125 4.625 -2 2 C-1.34 1.34 -0.68 0.68 0 0 Z " fill="#273670" transform="translate(126,169)" />
    <path d="M0 0 C1.96293766 1.96293766 2.68347281 3.27094455 3.8125 5.75 C6.34705357 10.96096648 9.7904589 15.0120137 14 19 C13.01 19.33 12.02 19.66 11 20 C6.9392535 16.36054132 3.8872278 13.10087285 1.5625 8.125 C-0.0321095 4.87844823 -0.0321095 4.87844823 -3.0859375 3.20703125 C-5.54896775 2.85729691 -5.54896775 2.85729691 -9 3 C-9 2.67 -9 2.34 -9 2 C-6.03 2 -3.06 2 0 2 C0 1.34 0 0.68 0 0 Z " fill="#42487F" transform="translate(91,174)" />
    <path d="M0 0 C0 1.65 0 3.3 0 5 C-5.45461169 6.38529821 -10.36718401 7.2396943 -16 7 C-16.33 6.34 -16.66 5.68 -17 5 C-15.824375 4.731875 -14.64875 4.46375 -13.4375 4.1875 C-10.53108088 3.46992938 -7.86049248 2.59013455 -5.125 1.375 C-2 0 -2 0 0 0 Z " fill="#B6B8CE" transform="translate(24,154)" />
    <path d="M0 0 C4.70588235 0.70588235 4.70588235 0.70588235 6 2 C6.125 4.5 6.125 4.5 6 7 C5 8 5 8 2.5625 8.1875 C0 8 0 8 -2 6 C-1.44444444 1.44444444 -1.44444444 1.44444444 0 0 Z " fill="#EBECF1" transform="translate(164,74)" />
    <path d="M0 0 C4.70588235 0.70588235 4.70588235 0.70588235 6 2 C6.125 4.5 6.125 4.5 6 7 C5 8 5 8 2.5625 8.1875 C0 8 0 8 -2 6 C-1.44444444 1.44444444 -1.44444444 1.44444444 0 0 Z " fill="#E9E9F0" transform="translate(47,74)" />
    <path d="M0 0 C0.33 0 0.66 0 1 0 C0.41106018 5.47283097 -0.93424598 10.23436863 -2.875 15.375 C-3.13152344 16.09816406 -3.38804688 16.82132813 -3.65234375 17.56640625 C-4.34245787 19.41480235 -5.16290168 21.21335732 -6 23 C-6.99 23.33 -7.98 23.66 -9 24 C-6.80148049 15.63019764 -3.50929804 7.88172441 0 0 Z " fill="#263A71" transform="translate(130,137)" />
    <path d="M0 0 C2.625 0.375 2.625 0.375 5 1 C5.625 3.375 5.625 3.375 6 6 C5.34 6.66 4.68 7.32 4 8 C1.375 7.625 1.375 7.625 -1 7 C-1.625 4.625 -1.625 4.625 -2 2 C-1.34 1.34 -0.68 0.68 0 0 Z " fill="#F6F6F8" transform="translate(50,64)" />
    <path d="M0 0 C2.5 0.125 2.5 0.125 3.5 1.125 C3.54080783 3.12458364 3.54254356 5.12545254 3.5 7.125 C1.5085944 7.50633299 -0.49279077 7.83825582 -2.5 8.125 C-3.5 7.125 -3.5 7.125 -3.625 4.125 C-3.46033403 0.1730167 -3.46033403 0.1730167 0 0 Z " fill="#F7F7F9" transform="translate(163.5,63.875)" />
    <path d="M0 0 C0.69222656 0.63228516 0.69222656 0.63228516 1.3984375 1.27734375 C6.78822989 5.80434329 11.00671163 6.97133898 18 7 C15.66239424 9.33760576 15.06741017 9.34295127 11.875 9.4375 C6.55524992 9.35990235 3.13909105 7.15788963 -1 4 C-0.67 2.68 -0.34 1.36 0 0 Z " fill="#52588A" transform="translate(73,236)" />
    <path d="M0 0 C0.99 0.33 1.98 0.66 3 1 C3.33 2.65 3.66 4.3 4 6 C5.98 6 7.96 6 10 6 C9.67 6.66 9.34 7.32 9 8 C8.34 8 7.68 8 7 8 C6.566875 9.7015625 6.566875 9.7015625 6.125 11.4375 C5.75375 12.613125 5.3825 13.78875 5 15 C4.01 15.495 4.01 15.495 3 16 C2.875 10.25 2.875 10.25 4 8 C3.01 7.67 2.02 7.34 1 7 C0.67 4.69 0.34 2.38 0 0 Z " fill="#2F3572" transform="translate(157,65)" />
    <path d="M0 0 C-0.33 0.99 -0.66 1.98 -1 3 C-10.04075456 5.6877919 -18.7504357 4.79404612 -28 4 C-28 3.67 -28 3.34 -28 3 C-27.31897217 2.94465088 -26.63794434 2.88930176 -25.9362793 2.83227539 C-22.85302403 2.57952368 -19.77027182 2.32107872 -16.6875 2.0625 C-15.61564453 1.97548828 -14.54378906 1.88847656 -13.43945312 1.79882812 C-11.89741211 1.66831055 -11.89741211 1.66831055 -10.32421875 1.53515625 C-8.9024231 1.41732788 -8.9024231 1.41732788 -7.4519043 1.29711914 C-4.84599689 0.98133807 -2.62003022 0 0 0 Z " fill="#283789" transform="translate(129,116)" />
    <path d="M0 0 C7.59 0.33 15.18 0.66 23 1 C20.39873432 3.60126568 18.5260998 3.28837247 14.9765625 3.32226562 C13.81253906 3.31743164 13.81253906 3.31743164 12.625 3.3125 C11.85671875 3.32861328 11.0884375 3.34472656 10.296875 3.36132812 C9.55179688 3.36197266 8.80671875 3.36261719 8.0390625 3.36328125 C7.36053223 3.36626221 6.68200195 3.36924316 5.98291016 3.37231445 C4 3 4 3 0 0 Z " fill="#333A76" transform="translate(95,119)" />
    <path d="M0 0 C0.33 1.32 0.66 2.64 1 4 C-3.57159927 7.80966606 -6.67922471 10.30355221 -12.75 10.125 C-13.54921875 10.10695312 -14.3484375 10.08890625 -15.171875 10.0703125 C-15.77515625 10.04710937 -16.3784375 10.02390625 -17 10 C-17.33 9.34 -17.66 8.68 -18 8 C-17.33613281 7.96261719 -16.67226562 7.92523438 -15.98828125 7.88671875 C-9.00004697 7.40260083 -9.00004697 7.40260083 -3 4 C-1.21655822 1.93045153 -1.21655822 1.93045153 0 0 Z " fill="#515689" transform="translate(145,231)" />
    <path d="M0 0 C2.31 0 4.62 0 7 0 C7 0.99 7 1.98 7 3 C5.35 3 3.7 3 2 3 C2 6.63 2 10.26 2 14 C1.34 14 0.68 14 0 14 C0 9.38 0 4.76 0 0 Z " fill="#FF3F07" transform="translate(103,171)" />
    <path d="M0 0 C1.7290774 -0.02725341 3.45828176 -0.04650987 5.1875 -0.0625 C6.15042969 -0.07410156 7.11335938 -0.08570313 8.10546875 -0.09765625 C10.85576513 -0.00486622 13.32479591 0.37888315 16 1 C14 3 14 3 11.25 3.23046875 C10.1775 3.21628906 9.105 3.20210937 8 3.1875 C6.9275 3.18105469 5.855 3.17460937 4.75 3.16796875 C2 3 2 3 0 2 C0 1.34 0 0.68 0 0 Z " fill="#515789" transform="translate(101,156)" />
    <path d="M0 0 C4.32511328 3.91319773 5.87983952 8.75700439 6.1875 14.5 C6.125625 15.325 6.06375 16.15 6 17 C5.01 17 4.02 17 3 17 C2.86722656 16.19175781 2.73445313 15.38351563 2.59765625 14.55078125 C2.42105469 13.48214844 2.24445313 12.41351563 2.0625 11.3125 C1.88847656 10.25675781 1.71445313 9.20101562 1.53515625 8.11328125 C1.06832879 5.39750396 0.55577384 2.69875765 0 0 Z " fill="#02CB88" transform="translate(90,142)" />
    <path d="M0 0 C0 0.66 0 1.32 0 2 C4.29 2 8.58 2 13 2 C13 2.33 13 2.66 13 3 C11.96359375 3.06058594 10.9271875 3.12117188 9.859375 3.18359375 C8.48957127 3.26803371 7.11978025 3.35267997 5.75 3.4375 C4.72712891 3.49647461 4.72712891 3.49647461 3.68359375 3.55664062 C0.93547735 3.73006545 -1.68474369 3.92014203 -4.359375 4.59765625 C-6 5 -6 5 -8 4 C-7.67 3.01 -7.34 2.02 -7 1 C-2.25 0 -2.25 0 0 0 Z " fill="#4E4C68" transform="translate(189,59)" />
    <path d="M0 0 C0.66 0 1.32 0 2 0 C1.69255859 0.8353125 1.69255859 0.8353125 1.37890625 1.6875 C-0.43878495 6.83617554 -1.50570547 11.56276016 -2 17 C-2.99 17 -3.98 17 -5 17 C-3.96232949 10.93267948 -2.66038099 5.5626148 0 0 Z " fill="#01E08C" transform="translate(124,142)" />
    <path d="M0 0 C2.12038635 2.61514317 4.13091744 5.19637616 6 8 C2.7 8.66 -0.6 9.32 -4 10 C-3.525625 9.278125 -3.05125 8.55625 -2.5625 7.8125 C-1.05847097 5.10524774 -0.43400818 3.03805725 0 0 Z " fill="#242C69" transform="translate(46,66)" />
    <path d="M0 0 C2.31 0 4.62 0 7 0 C7 0.33 7 0.66 7 1 C5.35 1 3.7 1 2 1 C1.7525 1.886875 1.505 2.77375 1.25 3.6875 C-0.03934768 7.10427135 -1.59980129 9.2797748 -4 12 C-4.66 11.34 -5.32 10.68 -6 10 C-5.38125 9.0925 -4.7625 8.185 -4.125 7.25 C-2.55610389 4.85051183 -1.19556179 2.59038388 0 0 Z " fill="#444A80" transform="translate(123,176)" />
    <path d="M0 0 C5.61 0.33 11.22 0.66 17 1 C16.01 2.485 16.01 2.485 15 4 C13.24908981 3.91245449 11.49920449 3.80426627 9.75 3.6875 C8.77546875 3.62949219 7.8009375 3.57148438 6.796875 3.51171875 C4 3 4 3 0 0 Z " fill="#344479" transform="translate(64,172)" />
    <path d="M0 0 C0.33 0 0.66 0 1 0 C2.38458877 6.79707213 1.35001386 11.52086573 -1 18 C-1.33 18 -1.66 18 -2 18 C-1.48758893 11.97099313 -0.930215 5.97995357 0 0 Z " fill="#343B76" transform="translate(102,231)" />
    <path d="M0 0 C0.33 0.66 0.66 1.32 1 2 C3.58605332 2.4683265 3.58605332 2.4683265 6.5625 2.625 C8.08037109 2.73714844 8.08037109 2.73714844 9.62890625 2.8515625 C10.80259766 2.92503906 10.80259766 2.92503906 12 3 C11.01 4.485 11.01 4.485 10 6 C8.54077307 5.88590407 7.08259402 5.75834456 5.625 5.625 C4.40683594 5.52058594 4.40683594 5.52058594 3.1640625 5.4140625 C1 5 1 5 -1 3 C-0.67 2.01 -0.34 1.02 0 0 Z " fill="#344A7B" transform="translate(65,162)" />
    <path d="M0 0 C0.66 0 1.32 0 2 0 C2.66 2.31 3.32 4.62 4 7 C5.32 7.33 6.64 7.66 8 8 C8 8.66 8 9.32 8 10 C5.125 9.6875 5.125 9.6875 2 9 C-0.29013653 5.5647952 -0.17842973 4.014669 0 0 Z " fill="#343872" transform="translate(101,35)" />
    <path d="M0 0 C2.31 1.98 4.62 3.96 7 6 C6.67 6.99 6.34 7.98 6 9 C1.3125 5.484375 1.3125 5.484375 0 4 C0 2.68 0 1.36 0 0 Z " fill="#434980" transform="translate(68,119)" />
    <path d="M0 0 C0.33 0 0.66 0 1 0 C0.88529863 1.75070517 0.75780972 3.50057536 0.625 5.25 C0.55539063 6.22453125 0.48578125 7.1990625 0.4140625 8.203125 C0.01534751 10.89633189 -0.63507063 12.66963279 -2 15 C-2.3690205 4.44191344 -2.3690205 4.44191344 0 0 Z " fill="#B2B4CB" transform="translate(101,232)" />
    <path d="M0 0 C0.66 0.33 1.32 0.66 2 1 C1.67 3.97 1.34 6.94 1 10 C0.01 10.33 -0.98 10.66 -2 11 C-1.85957123 9.35369672 -1.71250671 7.70795821 -1.5625 6.0625 C-1.48128906 5.14597656 -1.40007812 4.22945313 -1.31640625 3.28515625 C-1 1 -1 1 0 0 Z " fill="#232A6A" transform="translate(282,72)" />
    <path d="M0 0 C0 0.66 0 1.32 0 2 C-4.51617599 2.07654536 -8.59085217 2.10228696 -13 1 C-13 0.67 -13 0.34 -13 0 C-11.58456585 -0.19658808 -10.16755969 -0.38187546 -8.75 -0.5625 C-7.96109375 -0.66691406 -7.1721875 -0.77132812 -6.359375 -0.87890625 C-3.99467126 -1.00027349 -2.2488963 -0.69633257 0 0 Z " fill="#244574" transform="translate(146,173)" />
    <path d="M0 0 C0.66 0.33 1.32 0.66 2 1 C2 2.98 2 4.96 2 7 C0.02 7.33 -1.96 7.66 -4 8 C-4.33 7.34 -4.66 6.68 -5 6 C-3.68 5.67 -2.36 5.34 -1 5 C-0.67 3.35 -0.34 1.7 0 0 Z " fill="#B3B6CC" transform="translate(165,64)" />
    <path d="M0 0 C0.66 0.33 1.32 0.66 2 1 C2.125 3.875 2.125 3.875 2 7 C0 9 0 9 -2.625 9.125 C-3.40875 9.08375 -4.1925 9.0425 -5 9 C-5.33 8.34 -5.66 7.68 -6 7 C-4.02 6.34 -2.04 5.68 0 5 C0 3.35 0 1.7 0 0 Z " fill="#C13510" transform="translate(110,34)" />
    <path d="M0 0 C2 2 2 2 2.125 5.125 C2.08375 6.07375 2.0425 7.0225 2 8 C1.67 7.360625 1.34 6.72125 1 6.0625 C-2.02329832 2.9447236 -4.73656724 3.27956936 -9 3 C-9 2.67 -9 2.34 -9 2 C-6.03 2 -3.06 2 0 2 C0 1.34 0 0.68 0 0 Z " fill="#5E6392" transform="translate(91,174)" />
    <path d="M0 0 C0.66 0.33 1.32 0.66 2 1 C1.67 2.65 1.34 4.3 1 6 C-0.65 6.33 -2.3 6.66 -4 7 C-4.33 6.34 -4.66 5.68 -5 5 C-4.360625 4.731875 -3.72125 4.46375 -3.0625 4.1875 C-0.66868314 3.11332248 -0.66868314 3.11332248 0 0 Z " fill="#B4B7CD" transform="translate(54,65)" />
    <path d="M0 0 C0.99 0.33 1.98 0.66 3 1 C0.125 4.875 0.125 4.875 -1 6 C-2.66617115 6.04063832 -4.33388095 6.042721 -6 6 C-4.68 5.67 -3.36 5.34 -2 5 C-1.855625 4.360625 -1.71125 3.72125 -1.5625 3.0625 C-1 1 -1 1 0 0 Z " fill="#606594" transform="translate(89,161)" />
    <path d="M0 0 C0.66 0.33 1.32 0.66 2 1 C2.042721 2.66611905 2.04063832 4.33382885 2 6 C1 7 1 7 -1.5625 7.0625 C-2.7690625 7.0315625 -2.7690625 7.0315625 -4 7 C-3.525625 6.5875 -3.05125 6.175 -2.5625 5.75 C-0.83733482 3.817815 -0.43415125 2.51807725 0 0 Z " fill="#B2B5CB" transform="translate(168,75)" />
    <path d="M0 0 C0.66 0.33 1.32 0.66 2 1 C2.042721 2.66611905 2.04063832 4.33382885 2 6 C1 7 1 7 -1.5625 7.0625 C-2.7690625 7.0315625 -2.7690625 7.0315625 -4 7 C-3.525625 6.5875 -3.05125 6.175 -2.5625 5.75 C-0.83733482 3.817815 -0.43415125 2.51807725 0 0 Z " fill="#B7B9CF" transform="translate(51,75)" />
    <path d="M0 0 C0.99 0.33 1.98 0.66 3 1 C3 3.31 3 5.62 3 8 C1.5 6.8125 1.5 6.8125 0 5 C-0.1875 2.3125 -0.1875 2.3125 0 0 Z " fill="#4F5488" transform="translate(157,65)" />
    <path d="M0 0 C2.64 0.33 5.28 0.66 8 1 C7.67 1.99 7.34 2.98 7 4 C4.69 3.34 2.38 2.68 0 2 C0 1.34 0 0.68 0 0 Z " fill="#2D3371" transform="translate(131,264)" />
    <path d="M0 0 C0.33 0 0.66 0 1 0 C1 2.64 1 5.28 1 8 C-0.98 8.99 -0.98 8.99 -3 10 C-2.01 6.7 -1.02 3.4 0 0 Z " fill="#C3C5D7" transform="translate(98,241)" />
    <path d="M0 0 C2.31 0 4.62 0 7 0 C7 0.99 7 1.98 7 3 C4.625 3.1875 4.625 3.1875 2 3 C1.34 2.01 0.68 1.02 0 0 Z " fill="#FF6130" transform="translate(103,171)" />
    <path d="M0 0 C0.33 1.32 0.66 2.64 1 4 C-2.25 5.125 -2.25 5.125 -6 6 C-7.32 5.34 -8.64 4.68 -10 4 C-6.7 3.67 -3.4 3.34 0 3 C0 2.01 0 1.02 0 0 Z " fill="#656997" transform="translate(148,161)" />
    <path d="M0 0 C-2.33214148 1.20628008 -4.49642139 2.1654738 -7 3 C-7.66 2.34 -8.32 1.68 -9 1 C-5.64919071 -1.10976881 -3.77897651 -1.0497157 0 0 Z " fill="#444879" transform="translate(190,144)" />
    <path d="M0 0 C-6.75 4 -6.75 4 -9 4 C-8 1 -8 1 -6.1875 -0.25 C-3.66056586 -1.11637742 -2.47778006 -0.88492145 0 0 Z " fill="#D8BE6E" transform="translate(191,63)" />
    <path d="M0 0 C2 2 2 2 2.125 5.125 C2.08375 6.07375 2.0425 7.0225 2 8 C1.01 8 0.02 8 -1 8 C-0.67 5.36 -0.34 2.72 0 0 Z " fill="#02C888" transform="translate(120,151)" />
    <path d="M0 0 C0 0.33 0 0.66 0 1 C-2.64 1.66 -5.28 2.32 -8 3 C-8.33 2.01 -8.66 1.02 -9 0 C-5.93109813 -1.53445094 -3.29905734 -0.54984289 0 0 Z " fill="#34418D" transform="translate(84,55)" />
    <path d="M0 0 C0.78375 0.04125 1.5675 0.0825 2.375 0.125 C2.045 1.115 1.715 2.105 1.375 3.125 C-1.6875 4.3125 -1.6875 4.3125 -4.625 5.125 C-4.625 1.22254579 -3.95783286 0.18846823 0 0 Z " fill="#655379" transform="translate(107.625,30.875)" />
</svg>