<svg width="96" height="22" viewBox="0 0 96 22" fill="none" xmlns="http://www.w3.org/2000/svg">
<path d="M16.2 6.28998C16.72 5.27998 17.77 4.66001 18.9 4.69001C20.1 4.69001 21.69 5.33 21.69 6.5C21.72 7.08 21.29 7.60999 20.71 7.66999C20.68 7.66999 20.65 7.66999 20.62 7.66999C20.31 7.66999 20.01 7.55002 19.76 7.33002C19.39 7.02002 18.93 6.84 18.44 6.87C16.97 6.87 16.2 7.94002 16.2 9.33002V14.46C16.2 15.5 15.99 16.03 15.06 16.03C14.2 16.03 13.99 15.51 13.99 14.4V6.16999C13.99 5.42999 14.3 4.96997 14.97 4.96997C15.86 4.96997 16.05 5.36998 16.2 6.28998Z" fill="#2D4ADA"/>
<path d="M25.96 1.84003C25.99 2.61003 25.38 3.25003 24.61 3.28003C23.75 3.28003 23.2 2.76003 23.2 1.84003C23.17 1.10003 23.75 0.490022 24.49 0.460022C24.52 0.460022 24.58 0.460022 24.61 0.460022C25.35 0.520022 25.93 1.14003 25.96 1.84003ZM25.75 14.89C25.75 15.69 25.38 16.09 24.58 16.09C23.81 16.09 23.44 15.69 23.44 14.89V6.20001C23.44 5.34001 23.78 4.94 24.55 4.94C25.32 4.94 25.72 5.34001 25.72 6.20001V14.89H25.75Z" fill="#2D4ADA"/>
<path d="M32.62 12.89L35.44 5.77002C35.69 5.16002 36.08 4.90997 36.58 4.90997C37.16 4.90997 37.65 5.39998 37.65 5.97998C37.65 6.18998 37.59 6.41003 37.5 6.59003L33.91 15.15C33.63 15.79 33.3 16.1 32.65 16.1C32.04 16.1 31.67 15.82 31.39 15.15L27.77 6.62C27.68 6.44 27.65 6.21998 27.62 6.03998C27.59 5.42998 28.08 4.93002 28.66 4.90002C28.66 4.90002 28.66 4.90002 28.69 4.90002C29.15 4.90002 29.55 5.17998 29.83 5.78998L32.62 12.89Z" fill="#2D4ADA"/>
<path d="M48.77 4.82001C49.51 4.82001 49.88 5.21999 49.88 6.04999V14.71C49.88 15.66 49.63 16.12 48.81 16.12C48.1 16.12 47.74 15.6 47.64 14.43C47.09 15.47 45.58 16.18 44.08 16.18C40.95 16.18 38.77 13.66 38.77 10.44C38.77 7.16 40.95 4.66998 44.08 4.66998C45.61 4.66998 47.09 5.31001 47.67 6.45001C47.73 5.62001 47.94 4.82001 48.77 4.82001ZM41.03 10.44C41.03 12.4 42.38 13.94 44.31 13.94C46.21 13.94 47.59 12.41 47.59 10.44C47.59 8.57 46.24 6.94 44.31 6.94C42.38 6.94 41.03 8.57 41.03 10.44Z" fill="#2D4ADA"/>
<path d="M57.21 16.21C54.05 16.24 51.47 13.72 51.44 10.56C51.44 10.53 51.44 10.47 51.44 10.44C51.38 7.30999 53.9 4.69997 57.06 4.66997C57.12 4.66997 57.15 4.66997 57.21 4.66997C58.5 4.63997 59.76 5.03998 60.77 5.80998C61.17 6.05998 61.45 6.51997 61.45 6.97997C61.45 7.55997 60.96 8.04997 60.38 8.04997H60.35C60.01 8.01997 59.71 7.89998 59.43 7.67998C58.82 7.21998 58.05 6.93999 57.25 6.93999C55.32 6.93999 53.78 8.50999 53.78 10.44C53.78 12.37 55.35 13.91 57.28 13.91C58.2 13.91 59.06 13.6 59.74 12.99C59.99 12.74 60.32 12.59 60.69 12.56C61.27 12.56 61.76 13.05 61.76 13.63V13.66C61.73 14.03 61.58 14.37 61.3 14.64C60.4 15.63 58.84 16.21 57.21 16.21Z" fill="#2D4ADA"/>
<path d="M65.44 10.81C65.72 12.68 66.79 14 68.94 14C69.86 14.03 70.75 13.69 71.46 13.08C71.71 12.8 72.07 12.68 72.41 12.68C72.99 12.68 73.48 13.17 73.48 13.75C73.48 14.82 71.58 16.21 68.88 16.21C65.72 16.21 63.17 13.66 63.17 10.53C63.17 10.5 63.17 10.5 63.17 10.47C63.11 7.33997 65.63 4.76001 68.76 4.70001C68.79 4.70001 68.85 4.70001 68.88 4.70001C72.16 4.70001 74.25 7.24999 74.25 9.29999C74.25 10.28 73.64 10.83 72.53 10.83H65.44V10.81V10.81ZM71.95 9.06C71.67 7.68 70.48 6.84998 68.88 6.84998C67.35 6.84998 65.99 7.71 65.56 9.06H71.95Z" fill="#2D4ADA"/>
<path d="M78.18 6.28998C78.7 5.27998 79.75 4.66001 80.88 4.69001C82.08 4.69001 83.67 5.33 83.67 6.5C83.7 7.08 83.27 7.60999 82.69 7.66999C82.66 7.66999 82.63 7.66999 82.6 7.66999C82.29 7.66999 81.99 7.55002 81.74 7.33002C81.37 7.02002 80.91 6.84 80.42 6.87C78.95 6.87 78.18 7.94002 78.18 9.33002V14.46C78.18 15.5 77.97 16.03 77.04 16.03C76.18 16.03 75.97 15.51 75.97 14.4V6.16999C75.97 5.42999 76.28 4.96997 76.95 4.96997C77.81 4.96997 77.99 5.36998 78.18 6.28998Z" fill="#2D4ADA"/>
<path d="M94.36 4.82001C95.1 4.82001 95.47 5.21999 95.47 6.04999V14.71C95.47 15.66 95.22 16.12 94.4 16.12C93.69 16.12 93.33 15.6 93.23 14.43C92.68 15.47 91.17 16.18 89.67 16.18C86.54 16.18 84.36 13.66 84.36 10.44C84.36 7.16 86.54 4.66998 89.67 4.66998C91.2 4.66998 92.68 5.31001 93.26 6.45001C93.31 5.62001 93.53 4.82001 94.36 4.82001ZM86.62 10.44C86.62 12.4 87.97 13.94 89.9 13.94C91.83 13.94 93.18 12.41 93.18 10.44C93.18 8.57 91.83 6.94 89.9 6.94C87.97 6.94 86.62 8.57 86.62 10.44Z" fill="#2D4ADA"/>
<path d="M11.75 10.44C11.75 13.76 9.57001 16.24 6.35001 16.24H5.61001C4.97001 16.24 4.47001 15.72 4.47001 15.1C4.47001 14.46 4.99001 13.96 5.61001 13.96H6.10001C8.03001 13.96 9.42001 12.36 9.42001 10.46C9.42001 8.50002 8.04001 6.92999 6.10001 6.92999H1.43001C0.850008 6.92999 0.360009 6.49998 0.290009 5.91998C0.290009 5.88998 0.290009 5.86001 0.290009 5.83001C0.290009 5.19001 0.810008 4.69 1.43001 4.69H6.03001C6.15001 4.69 6.24001 4.69 6.37001 4.69C9.54001 4.67 11.75 7.18 11.75 10.44Z" fill="#2D4ADA"/>
<path d="M6.41002 9.66998C6.26002 9.57998 6.07002 9.54999 5.92002 9.54999H1.44002C0.830018 9.54999 0.300018 10.04 0.300018 10.69V20.82C0.300018 21.43 0.820018 21.96 1.44002 21.96C2.05002 21.96 2.58002 21.44 2.58002 20.82V11.86H5.93002C6.57002 11.86 7.07002 11.34 7.07002 10.72C7.05002 10.25 6.81002 9.85998 6.41002 9.66998Z" fill="#FF4D01"/>
</svg>
