<svg width="861" height="159" viewBox="0 0 861 159" fill="none" xmlns="http://www.w3.org/2000/svg">
<g clip-path="url(#clip0_2454_11743)">
<path d="M104.25 55.85C107.67 49.21 114.51 45.18 121.96 45.38C129.81 45.38 140.27 49.61 140.27 57.25C140.47 61.07 137.65 64.5 133.83 64.9H133.23C131.22 64.9 129.2 64.09 127.59 62.69C125.17 60.68 122.16 59.47 118.94 59.67C109.28 59.67 104.25 66.71 104.25 75.77V109.38C104.25 116.22 102.84 119.64 96.7998 119.64C91.1598 119.64 89.7598 116.22 89.7598 108.97V55.03C89.7598 50.2 91.7698 47.18 96.1998 47.18C102.04 47.18 103.24 49.8 104.25 55.83V55.85Z" fill="white"/>
<path d="M168.25 26.67C168.45 31.7 164.43 35.93 159.39 36.13C153.75 36.13 150.13 32.71 150.13 26.67C149.93 21.84 153.75 17.81 158.58 17.61H159.39C164.22 18.01 168.04 22.04 168.25 26.67ZM166.84 112.2C166.84 117.43 164.42 120.05 159.19 120.05C153.96 120.05 151.74 117.43 151.74 112.2V55.24C151.74 49.6 153.95 46.99 158.99 46.99C164.03 46.99 166.64 49.61 166.64 55.24V112.2H166.84Z" fill="white"/>
<path d="M211.92 99.12L230.44 52.43C232.05 48.4 234.67 46.79 237.89 46.79C241.71 46.79 244.93 50.01 244.93 53.83C244.93 55.24 244.53 56.65 243.92 57.86L220.37 114.01C218.56 118.24 216.34 120.25 212.12 120.25C207.9 120.25 205.68 118.44 203.87 114.01L180.12 58.06C179.52 56.85 179.31 55.44 179.11 54.24C178.91 50.21 182.13 46.99 185.95 46.79H186.15C189.17 46.79 191.79 48.6 193.6 52.63L211.91 99.12H211.92Z" fill="white"/>
<path d="M317.79 46.19C322.62 46.19 325.04 48.81 325.04 54.24V110.99C325.04 117.23 323.43 120.25 318 120.25C313.37 120.25 310.96 116.83 310.35 109.18C306.73 116.02 296.87 120.65 287 120.65C266.47 120.65 252.18 104.15 252.18 83.01C252.18 61.87 266.47 45.17 287 45.17C297.06 45.17 306.72 49.4 310.55 56.84C310.95 51.41 312.36 46.17 317.8 46.17L317.79 46.19ZM267.07 83.02C267.07 95.9 275.93 105.96 288.6 105.96C301.27 105.96 310.13 95.9 310.13 83.02C310.13 70.14 301.27 60.08 288.6 60.08C275.93 60.08 267.07 70.75 267.07 83.02Z" fill="white"/>
<path d="M373.13 120.86C352.4 121.06 335.49 104.56 335.29 83.83V83.02C334.89 62.49 351.39 45.38 372.12 45.18H373.13C381.58 44.98 389.83 47.6 396.48 52.63C399.1 54.24 400.91 57.26 400.91 60.28C400.91 64.1 397.69 67.32 393.87 67.32H393.67C391.46 67.12 389.44 66.31 387.63 64.9C383.6 61.88 378.57 60.07 373.34 60.07C360.66 60.07 350.6 70.33 350.6 83.01C350.6 95.69 360.86 105.75 373.54 105.75C379.58 105.75 385.21 103.74 389.64 99.71C391.25 98.1 393.46 97.09 395.88 96.89C399.7 96.89 402.92 100.11 402.92 103.93V104.13C402.72 106.55 401.71 108.76 399.9 110.57C394.06 117.01 383.8 120.83 373.13 120.83V120.86Z" fill="white"/>
<path d="M427.07 85.44C428.88 97.72 435.93 106.37 450.01 106.37C456.05 106.57 461.88 104.36 466.51 100.33C468.12 98.52 470.54 97.71 472.75 97.71C476.57 97.71 479.79 100.93 479.79 104.75C479.79 111.79 467.31 120.85 449.6 120.85C428.87 120.85 412.17 104.15 412.17 83.62V83.22C411.77 62.69 428.27 45.79 448.8 45.38H449.61C471.14 45.38 484.83 62.08 484.83 75.57C484.83 82.01 480.8 85.63 473.56 85.63H427.07V85.43V85.44ZM469.74 73.97C467.93 64.91 460.08 59.48 449.61 59.48C439.14 59.48 430.69 65.12 427.87 73.97H469.73H469.74Z" fill="white"/>
<path d="M510.59 55.85C514.01 49.21 520.85 45.18 528.3 45.38C536.15 45.38 546.61 49.61 546.61 57.25C546.81 61.07 543.99 64.5 540.17 64.9H539.57C537.56 64.9 535.54 64.09 533.93 62.69C531.51 60.68 528.5 59.47 525.28 59.67C515.62 59.67 510.59 66.71 510.59 75.77V109.38C510.59 116.22 509.18 119.64 503.14 119.64C497.5 119.64 496.1 116.22 496.1 108.97V55.03C496.1 50.2 498.11 47.18 502.54 47.18C508.18 47.18 509.38 49.8 510.59 55.83V55.85Z" fill="white"/>
<path d="M616.65 46.19C621.48 46.19 623.9 48.81 623.9 54.24V110.99C623.9 117.23 622.29 120.25 616.86 120.25C612.23 120.25 609.82 116.83 609.21 109.18C605.59 116.02 595.73 120.65 585.86 120.65C565.33 120.65 551.04 104.15 551.04 83.01C551.04 61.87 565.33 45.17 585.86 45.17C595.92 45.17 605.58 49.4 609.41 56.84C609.81 51.41 611.22 46.17 616.66 46.17L616.65 46.19ZM565.93 83.02C565.93 95.9 574.79 105.96 587.46 105.96C600.13 105.96 608.99 95.9 608.99 83.02C608.99 70.14 600.13 60.08 587.46 60.08C574.79 60.08 565.93 70.75 565.93 83.02Z" fill="white"/>
<path d="M75.07 83.02C75.07 104.76 60.78 121.06 39.65 121.06H34.82C30.59 121.06 27.37 117.64 27.37 113.61C27.37 109.38 30.79 106.16 34.82 106.16H38.04C50.72 106.16 59.78 95.69 59.78 83.22C59.78 70.75 50.72 60.08 38.04 60.08H7.45C3.63 60.08 0.41 57.26 0 53.44V52.84C0 48.61 3.42 45.39 7.45 45.39H39.85C60.58 45.19 75.07 61.69 75.07 83.03V83.02Z" fill="white"/>
<path d="M40.05 77.9901C39.04 77.3901 37.84 77.1801 36.83 77.1801H7.45C3.42 77.1801 0 80.4001 0 84.6301V151.05C0 155.08 3.42 158.5 7.45 158.5C11.48 158.5 14.9 155.08 14.9 151.05V92.2801H36.84C41.07 92.2801 44.29 88.8601 44.29 84.8301C44.29 81.8101 42.68 79.1901 40.06 77.9901H40.05Z" fill="#FF4D01"/>
<path d="M691.11 0H689.11V158.49H691.11V0Z" fill="white"/>
<path d="M860.15 54.97C860.15 49.14 857.44 46.43 852.23 46.43C847.02 46.43 844.73 49.14 844.73 54.97V113.92C844.73 119.34 847.23 122.04 852.44 122.04C857.65 122.04 860.36 119.33 860.36 113.92H860.15V54.97ZM824.23 45.6C818.61 45.6 817.15 51.02 816.73 56.64C812.77 48.93 802.77 44.56 792.36 44.56C771.11 44.56 756.32 61.43 756.32 83.72C756.32 106.01 771.11 122.67 792.36 122.67C802.57 122.67 812.77 117.88 816.52 110.8C817.14 118.72 819.64 122.26 824.44 122.26C830.06 122.26 831.73 119.14 831.73 112.68V53.94C831.73 48.32 829.23 45.61 824.23 45.61V45.6ZM794.03 107.47C780.91 107.47 771.74 97.05 771.74 83.72C771.74 70.39 780.91 59.97 794.03 59.97C807.15 59.97 816.32 71.01 816.32 83.72C816.32 97.05 806.95 107.47 794.03 107.47ZM860.36 27.03C860.36 31.34 856.86 34.84 852.55 34.84C848.24 34.84 844.74 31.34 844.74 27.03C844.74 22.72 848.24 19.22 852.55 19.22C856.86 19.22 860.36 22.72 860.36 27.03Z" fill="url(#paint0_linear_2454_11743)"/>
</g>
<defs>
<linearGradient id="paint0_linear_2454_11743" x1="775.57" y1="131.33" x2="867.73" y2="22.64" gradientUnits="userSpaceOnUse">
<stop stop-color="#00FB9B"/>
<stop offset="0.08" stop-color="#00F0A9"/>
<stop offset="0.3" stop-color="#01BAEF"/>
<stop offset="0.66" stop-color="#2D4ADA"/>
</linearGradient>
<clipPath id="clip0_2454_11743">
<rect width="860.36" height="158.49" fill="white"/>
</clipPath>
</defs>
</svg>
