<svg width="48" height="48" viewBox="0 0 48 48" fill="none" xmlns="http://www.w3.org/2000/svg">
<path d="M12.1152 7.98528C12.228 7.81661 12.1716 7.67589 12.2843 7.50722C12.679 6.66387 13.3557 6.10163 14.2578 6.10163C18.0921 6.04541 21.8699 5.87674 25.7041 6.15786C30.4405 6.4952 33.7109 9.08148 35.2333 13.5231C36.8121 18.021 36.3046 22.3503 33.3162 26.2297C31.8869 28.0851 29.6912 29.4066 26.8318 29.9967C25.4071 30.2907 24.2381 30.2694 23.1104 30.1653C21.9827 30.0612 21.0805 29.322 20.9113 28.0851C20.7986 27.073 21.5316 25.9486 22.5465 25.6674C23.1104 25.555 23.6742 25.4988 24.2381 25.4988C27.9032 25.6674 30.948 22.5752 31.2863 19.0331C31.5119 16.7841 31.0044 14.8163 29.5947 13.0734C28.2979 11.4991 26.6627 10.6557 24.6328 10.6557C21.3624 10.6557 17.5295 10.6557 14.2591 10.6557C12.9622 10.6557 12.5663 10.2622 12.1152 8.91281C12.1152 8.85659 12.1716 8.7054 12.1152 8.54662C12.1152 8.42617 12.0587 8.30465 12.1152 7.98528Z" fill="#2D4ADA"/>
<path d="M12.0024 18.8848C12.0024 18.8848 11.9666 18.0323 12.1716 17.5475C12.5779 16.5863 13.2993 16.0294 14.3706 16.0294C17.5282 16.0294 20.7422 16.0294 23.8998 16.0294C25.253 16.0294 26.2116 17.0414 26.2116 18.3908C26.2116 19.684 25.1967 20.696 23.8998 20.696C21.8135 20.696 19.7272 20.696 17.641 20.696C17.4154 20.696 17.1335 20.696 16.7952 20.696C16.7952 21.0333 16.7952 21.3144 16.7952 21.5956C16.7952 27.3304 16.7388 33.1214 16.7952 38.8562C16.7952 40.3742 16.3441 41.3863 14.8781 41.8923C14.7365 41.9412 14.5024 42 13.9195 41.8923C13.0173 41.5549 12.0024 41 12.0024 38.86C12.0024 31.4947 12.0024 18.8848 12.0024 18.8848Z" fill="#FF4D01"/>
</svg>
