<svg width="17" height="24" viewBox="0 0 17 24" fill="none" xmlns="http://www.w3.org/2000/svg">
<path d="M0.0768213 1.32525C0.15212 1.21266 0.11447 1.11872 0.189702 1.00613C0.453181 0.44316 0.904906 0.0678418 1.50709 0.0678418C4.06665 0.0303127 6.58848 -0.0822817 9.14796 0.105377C12.3097 0.330565 14.4928 2.05701 15.5091 5.02197C16.563 8.02451 16.2242 10.9145 14.2294 13.5041C13.2752 14.7427 11.8095 15.6249 9.90075 16.0188C8.94971 16.215 8.16935 16.2008 7.41656 16.1313C6.66378 16.0618 6.06152 15.5684 5.94858 14.7427C5.87334 14.0671 6.36265 13.3165 7.04014 13.1288C7.41656 13.0538 7.79292 13.0162 8.16935 13.0162C10.616 13.1288 12.6485 11.0646 12.8743 8.70012C13.0249 7.19882 12.6861 5.88524 11.7451 4.72178C10.8794 3.67087 9.78787 3.10787 8.43283 3.10787C6.2497 3.10787 3.69109 3.10787 1.50796 3.10787C0.642228 3.10787 0.377949 2.84519 0.0768213 1.94442C0.0768213 1.90689 0.114471 1.80596 0.0768213 1.69997C0.0768213 1.61957 0.0391052 1.53845 0.0768213 1.32525Z" fill="#2D4ADA"/>
<path d="M0.00160134 8.60104C0.00160134 8.60104 -0.0222967 8.03196 0.114549 7.70834C0.385771 7.0667 0.867334 6.69495 1.58247 6.69495C3.6903 6.69495 5.83577 6.69495 7.9436 6.69495C8.84691 6.69495 9.48682 7.3705 9.48682 8.27128C9.48682 9.13454 8.80933 9.81009 7.9436 9.81009C6.55091 9.81009 5.15822 9.81009 3.7656 9.81009C3.615 9.81009 3.42682 9.81009 3.20099 9.81009C3.20099 10.0353 3.20099 10.2229 3.20099 10.4106C3.20099 14.2388 3.16334 18.1046 3.20099 21.9328C3.20099 22.9461 2.89986 23.6217 1.92125 23.9595C1.82672 23.9921 1.67045 24.0314 1.28134 23.9595C0.679088 23.7343 0.00160134 23.3638 0.00160134 21.9353C0.00160134 17.0187 0.00160134 8.60104 0.00160134 8.60104Z" fill="#FF4D01"/>
</svg>