<svg id="Layer_2" xmlns="http://www.w3.org/2000/svg"  viewBox="0 0 693.64 226.32">
  <defs>
    <style>
      .cls-1 {
        fill: url(#New_Gradient_Swatch);
      }

      .cls-2 {
        fill: #fff;
      }
    </style>
    <linearGradient id="New_Gradient_Swatch" data-name="New Gradient Swatch" x1="149.85" y1="3980.88" x2="458.73" y2="3744.95" gradientTransform="translate(0 1848.27) scale(1 -.45)" gradientUnits="userSpaceOnUse">
      <stop offset="0" stop-color="#ffc500"/>
      <stop offset=".08" stop-color="#ffc500"/>
      <stop offset=".48" stop-color="#ff4d01"/>
      <stop offset=".8" stop-color="#ed0080"/>
    </linearGradient>
  </defs>
  <g id="Layer_1-2" data-name="Layer_1">
    <path class="cls-2" d="M0,224V6.98h97.66c14.88,0,28.11,3.2,39.68,9.61,11.58,6.41,20.66,15.19,27.28,26.35,6.61,11.16,9.92,23.98,9.92,38.44s-3.31,28.52-9.92,40.3c-6.62,11.78-15.71,21.04-27.28,27.75-11.58,6.72-24.8,10.07-39.68,10.07h-30.69v64.49H0ZM65.73,102.46h19.53c3.93,0,7.44-.77,10.54-2.33,3.1-1.55,5.53-3.77,7.29-6.67,1.76-2.89,2.64-6.51,2.64-10.85s-.88-7.85-2.64-10.54c-1.76-2.69-4.19-4.7-7.29-6.04-3.1-1.34-6.62-2.01-10.54-2.01h-19.53v38.44Z"/>
    <path class="cls-2" d="M588.55,226.32c-18.6,0-35.09-2.79-49.45-8.37-14.37-5.58-26.51-13.43-36.43-23.56-9.92-10.13-17.41-22.12-22.48-35.97-5.07-13.85-7.6-28.94-7.6-45.26s2.84-31.67,8.53-45.42c5.68-13.74,13.9-25.68,24.65-35.81,10.75-10.12,23.51-17.98,38.29-23.56,14.78-5.58,31.26-8.37,49.45-8.37,12.6,0,24.34,1.55,35.19,4.65,10.85,3.1,20.66,7.29,29.45,12.56,8.78,5.27,16.38,11.22,22.79,17.83l-39.68,42.16c-4.14-3.92-8.58-7.39-13.33-10.39-4.76-2.99-10.03-5.37-15.81-7.13-5.79-1.75-12.3-2.63-19.53-2.63s-14.26,1.39-20.46,4.19c-6.2,2.79-11.58,6.66-16.12,11.63-4.55,4.96-8.12,10.9-10.7,17.82-2.59,6.93-3.87,14.42-3.87,22.48s1.34,15.55,4.03,22.48c2.69,6.93,6.4,12.87,11.16,17.83,4.75,4.96,10.44,8.83,17.05,11.63,6.61,2.79,13.85,4.19,21.7,4.19,5.37,0,10.28-.88,14.73-2.64,4.44-1.75,8.26-4.13,11.47-7.13,3.2-2.99,5.73-6.61,7.6-10.85,1.86-4.24,2.79-8.84,2.79-13.8v-8.99l8.68,14.88h-55.18v-47.12h106.65c.2,2.27.46,6,.77,11.16.31,5.17.51,10.28.62,15.35.1,5.07.15,8.53.15,10.39,0,13.85-2.59,26.66-7.75,38.44-5.17,11.78-12.46,21.91-21.86,30.38-9.41,8.47-20.52,15.09-33.33,19.84-12.82,4.75-26.87,7.13-42.16,7.13Z"/>
    <path class="cls-1" d="M219.99,72.57l80.39,151.42h69.97L258.16,2.33l-38.17,70.25ZM382.16,83.24v140.75h56.41V83.24h-56.41ZM410.36,2.33h0c-15.58,0-28.2,12.63-28.2,28.2h0c0,15.58,12.63,28.2,28.2,28.2h0c15.58,0,28.2-12.63,28.2-28.2h0c0-15.58-12.63-28.2-28.2-28.2ZM198.86,167.59h0c-15.58,0-28.2,12.63-28.2,28.2h0c0,15.58,12.63,28.2,28.2,28.2h0c15.58,0,28.2-12.63,28.2-28.2h0c0-15.58-12.63-28.2-28.2-28.2Z"/>
  </g>
</svg>